{"accessors":[{"bufferView":0,"byteOffset":0,"componentType":5126,"count":1,"max":[0],"min":[0],"type":"SCALAR"},{"bufferView":1,"byteOffset":0,"componentType":5123,"count":48,"type":"SCALAR"},{"bufferView":2,"byteOffset":0,"componentType":5126,"count":18,"max":[0.89802098274231,2.70231199264526,2.03216648101807],"min":[0.468375474214554,1.09388864040375,1.15814030170441],"type":"VEC3"},{"bufferView":3,"byteOffset":0,"componentType":5126,"count":18,"type":"VEC3"},{"bufferView":4,"byteOffset":0,"componentType":5126,"count":18,"type":"VEC4"},{"bufferView":5,"byteOffset":0,"componentType":5126,"count":18,"type":"VEC2"},{"bufferView":6,"byteOffset":0,"componentType":5126,"count":18,"type":"VEC2"}],"animations":[{"channels":[],"name":"Unreal Take","samplers":[]}],"asset":{"generator":"FBX2glTF v0.13.0","version":"2.0"},"bufferViews":[{"buffer":0,"byteLength":4,"byteOffset":0},{"buffer":0,"byteLength":96,"byteOffset":4,"target":34963},{"buffer":0,"byteLength":216,"byteOffset":100,"target":34962},{"buffer":0,"byteLength":216,"byteOffset":316,"target":34962},{"buffer":0,"byteLength":288,"byteOffset":532,"target":34962},{"buffer":0,"byteLength":144,"byteOffset":820,"target":34962},{"buffer":0,"byteLength":144,"byteOffset":964,"target":34962}],"buffers":[{"byteLength":1108,"uri":"SM_3RMonitorsCenter.bin"}],"materials":[{"alphaMode":"OPAQUE","doubleSided":false,"extras":{"fromFBX":{"isTruePBR":false,"shadingModel":"Phong"}},"name":"MP_3screensVC_Video_Mat","pbrMetallicRoughness":{"baseColorFactor":[0.21586050093174,0.21586050093174,0.21586050093174,1],"metallicFactor":0.400000005960464,"roughnessFactor":0.301511347293854}}],"meshes":[{"name":"SM_3RMonitorsCenter","primitives":[{"attributes":{"NORMAL":3,"POSITION":2,"TANGENT":4,"TEXCOORD_0":5,"TEXCOORD_1":6},"indices":1,"material":0,"mode":4}]}],"nodes":[{"mesh":0,"name":"SM_3RMonitorsCenter","originalUnits":0.00999999977648258,"pivot":[0,0,0],"rotation":[-0.70710676908493,-0,0,0.70710676908493],"scale":[1,1,1],"translation":[0,0,0]}],"samplers":[{}],"scene":0,"scenes":[{"name":"Root Scene","nodes":[0]}]}