{"accessors":[{"bufferView":0,"byteOffset":0,"componentType":5126,"count":1,"max":[0],"min":[0],"type":"SCALAR"},{"bufferView":1,"byteOffset":0,"componentType":5123,"count":15852,"type":"SCALAR"},{"bufferView":2,"byteOffset":0,"componentType":5126,"count":4927,"max":[0.922814667224884,3.52066493034363,2.89136099815369],"min":[-0.60920000076294,-0.03646337985992,-0.3242769241333],"type":"VEC3"},{"bufferView":3,"byteOffset":0,"componentType":5126,"count":4927,"type":"VEC3"},{"bufferView":4,"byteOffset":0,"componentType":5126,"count":4927,"type":"VEC4"},{"bufferView":5,"byteOffset":0,"componentType":5126,"count":4927,"type":"VEC2"},{"bufferView":6,"byteOffset":0,"componentType":5126,"count":4927,"type":"VEC2"}],"animations":[{"channels":[],"name":"Unreal Take","samplers":[]}],"asset":{"generator":"FBX2glTF v0.13.0","version":"2.0"},"bufferViews":[{"buffer":0,"byteLength":4,"byteOffset":0},{"buffer":0,"byteLength":31704,"byteOffset":4,"target":34963},{"buffer":0,"byteLength":59124,"byteOffset":31708,"target":34962},{"buffer":0,"byteLength":59124,"byteOffset":90832,"target":34962},{"buffer":0,"byteLength":78832,"byteOffset":149956,"target":34962},{"buffer":0,"byteLength":39416,"byteOffset":228788,"target":34962},{"buffer":0,"byteLength":39416,"byteOffset":268204,"target":34962}],"buffers":[{"byteLength":307620,"uri":"SM_3RMonitorsBase.bin"}],"materials":[{"alphaMode":"OPAQUE","doubleSided":false,"extras":{"fromFBX":{"isTruePBR":false,"shadingModel":"Phong"}},"name":"M_BlackAssets","pbrMetallicRoughness":{"baseColorFactor":[0,0,0,1],"metallicFactor":0.400000005960464,"roughnessFactor":0.301511347293854}}],"meshes":[{"name":"SM_3RMonitorsBase","primitives":[{"attributes":{"NORMAL":3,"POSITION":2,"TANGENT":4,"TEXCOORD_0":5,"TEXCOORD_1":6},"indices":1,"material":0,"mode":4}]}],"nodes":[{"mesh":0,"name":"SM_3RMonitorsBase","originalUnits":0.00999999977648258,"pivot":[0,0,0],"rotation":[-0.70710676908493,-0,0,0.70710676908493],"scale":[1,1,1],"translation":[0,0,0]}],"samplers":[{}],"scene":0,"scenes":[{"name":"Root Scene","nodes":[0]}]}