{"accessors":[{"bufferView":0,"byteOffset":0,"componentType":5126,"count":1,"max":[0],"min":[0],"type":"SCALAR"},{"bufferView":1,"byteOffset":0,"componentType":5123,"count":432,"type":"SCALAR"},{"bufferView":2,"byteOffset":0,"componentType":5126,"count":170,"max":[-0.02242431603372,0.00000399940563511336,0.700104057788849],"min":[-1.1882940530777,-1.16586482524872,-0.00000091552732],"type":"VEC3"},{"bufferView":3,"byteOffset":0,"componentType":5126,"count":170,"type":"VEC3"},{"bufferView":4,"byteOffset":0,"componentType":5126,"count":170,"type":"VEC4"},{"bufferView":5,"byteOffset":0,"componentType":5126,"count":170,"type":"VEC2"},{"bufferView":6,"byteOffset":0,"componentType":5126,"count":170,"type":"VEC2"}],"animations":[{"channels":[],"name":"Unreal Take","samplers":[]}],"asset":{"generator":"FBX2glTF v0.13.0","version":"2.0"},"bufferViews":[{"buffer":0,"byteLength":4,"byteOffset":0},{"buffer":0,"byteLength":864,"byteOffset":4,"target":34963},{"buffer":0,"byteLength":2040,"byteOffset":868,"target":34962},{"buffer":0,"byteLength":2040,"byteOffset":2908,"target":34962},{"buffer":0,"byteLength":2720,"byteOffset":4948,"target":34962},{"buffer":0,"byteLength":1360,"byteOffset":7668,"target":34962},{"buffer":0,"byteLength":1360,"byteOffset":9028,"target":34962}],"buffers":[{"byteLength":10388,"uri":"SM_AirDuctCorners.bin"}],"images":[{"name":"TX_AirDucts_N","uri":"TX_AirDucts_N.tga"},{"name":"TX_AirDucts_D","uri":"TX_AirDucts_D.tga"}],"materials":[{"alphaMode":"OPAQUE","doubleSided":false,"extras":{"fromFBX":{"isTruePBR":false,"shadingModel":"Phong"}},"name":"M_AirDucts","normalTexture":{"index":0,"texCoord":0},"pbrMetallicRoughness":{"baseColorFactor":[1,1,1,1],"baseColorTexture":{"index":1,"texCoord":0},"metallicFactor":0.400000005960464,"roughnessFactor":0.301511347293854}}],"meshes":[{"name":"SM_AirDuctCorners","primitives":[{"attributes":{"NORMAL":3,"POSITION":2,"TANGENT":4,"TEXCOORD_0":5,"TEXCOORD_1":6},"indices":1,"material":0,"mode":4}]}],"nodes":[{"mesh":0,"name":"SM_AirDuctCorners","originalUnits":0.00999999977648258,"pivot":[0,0,0],"rotation":[-0.70710676908493,-0,0,0.70710676908493],"scale":[1,1,1],"translation":[0,0,0]}],"samplers":[{}],"scene":0,"scenes":[{"name":"Root Scene","nodes":[0]}],"textures":[{"name":"EnvSamplerTex","sampler":0,"source":0},{"name":"EnvSamplerTex","sampler":0,"source":1}]}