{"accessors":[{"bufferView":0,"byteOffset":0,"componentType":5126,"count":1,"max":[0],"min":[0],"type":"SCALAR"},{"bufferView":1,"byteOffset":0,"componentType":5123,"count":2208,"type":"SCALAR"},{"bufferView":2,"byteOffset":0,"componentType":5126,"count":474,"max":[0.0549561381340027,0.0549809262156487,0.430668622255325],"min":[-0.05499082431197,-0.05495906621218,0.0034612431190908],"type":"VEC3"},{"bufferView":3,"byteOffset":0,"componentType":5126,"count":474,"type":"VEC3"},{"bufferView":4,"byteOffset":0,"componentType":5126,"count":474,"type":"VEC4"},{"bufferView":5,"byteOffset":0,"componentType":5126,"count":474,"type":"VEC2"},{"bufferView":6,"byteOffset":0,"componentType":5126,"count":474,"type":"VEC2"}],"animations":[{"channels":[],"name":"Unreal Take","samplers":[]}],"asset":{"generator":"FBX2glTF v0.13.0","version":"2.0"},"bufferViews":[{"buffer":0,"byteLength":4,"byteOffset":0},{"buffer":0,"byteLength":4416,"byteOffset":4,"target":34963},{"buffer":0,"byteLength":5688,"byteOffset":4420,"target":34962},{"buffer":0,"byteLength":5688,"byteOffset":10108,"target":34962},{"buffer":0,"byteLength":7584,"byteOffset":15796,"target":34962},{"buffer":0,"byteLength":3792,"byteOffset":23380,"target":34962},{"buffer":0,"byteLength":3792,"byteOffset":27172,"target":34962}],"buffers":[{"byteLength":30964,"uri":"SM_Bottle_01.bin"}],"images":[{"name":"TX_bottles_NRM","uri":"TX_bottles_NRM.tga"},{"name":"TX_bottles_ALB","uri":"TX_bottles_ALB.tga"}],"materials":[{"alphaMode":"OPAQUE","doubleSided":false,"extras":{"fromFBX":{"isTruePBR":false,"shadingModel":"Phong"}},"name":"M_bottles","normalTexture":{"index":0,"texCoord":0},"pbrMetallicRoughness":{"baseColorFactor":[1,1,1,1],"baseColorTexture":{"index":1,"texCoord":0},"metallicFactor":0.400000005960464,"roughnessFactor":0.301511347293854}}],"meshes":[{"name":"SM_Bottle_01","primitives":[{"attributes":{"NORMAL":3,"POSITION":2,"TANGENT":4,"TEXCOORD_0":5,"TEXCOORD_1":6},"indices":1,"material":0,"mode":4}]}],"nodes":[{"mesh":0,"name":"SM_Bottle_01","originalUnits":0.00999999977648258,"pivot":[0,0,0],"rotation":[-0.70710676908493,-0,0,0.70710676908493],"scale":[1,1,1],"translation":[0,0,0]}],"samplers":[{}],"scene":0,"scenes":[{"name":"Root Scene","nodes":[0]}],"textures":[{"name":"EnvSamplerTex","sampler":0,"source":0},{"name":"EnvSamplerTex","sampler":0,"source":1}]}