{"accessors":[{"bufferView":0,"byteOffset":0,"componentType":5126,"count":1,"max":[0],"min":[0],"type":"SCALAR"},{"bufferView":1,"byteOffset":0,"componentType":5123,"count":1692,"type":"SCALAR"},{"bufferView":2,"byteOffset":0,"componentType":5126,"count":379,"max":[0.0616215690970421,0.050115630030632,0.148628190159798],"min":[-0.06618130207062,-0.04974065721035,0.00983506999909878],"type":"VEC3"},{"bufferView":3,"byteOffset":0,"componentType":5126,"count":379,"type":"VEC3"},{"bufferView":4,"byteOffset":0,"componentType":5126,"count":379,"type":"VEC4"},{"bufferView":5,"byteOffset":0,"componentType":5126,"count":379,"type":"VEC2"},{"bufferView":6,"byteOffset":0,"componentType":5126,"count":379,"type":"VEC2"}],"animations":[{"channels":[],"name":"Unreal Take","samplers":[]}],"asset":{"generator":"FBX2glTF v0.13.0","version":"2.0"},"bufferViews":[{"buffer":0,"byteLength":4,"byteOffset":0},{"buffer":0,"byteLength":3384,"byteOffset":4,"target":34963},{"buffer":0,"byteLength":4548,"byteOffset":3388,"target":34962},{"buffer":0,"byteLength":4548,"byteOffset":7936,"target":34962},{"buffer":0,"byteLength":6064,"byteOffset":12484,"target":34962},{"buffer":0,"byteLength":3032,"byteOffset":18548,"target":34962},{"buffer":0,"byteLength":3032,"byteOffset":21580,"target":34962}],"buffers":[{"byteLength":24612,"uri":"SM_Bottle_03.bin"}],"images":[{"name":"TX_bottles_NRM","uri":"TX_bottles_NRM.tga"},{"name":"TX_bottles_ALB","uri":"TX_bottles_ALB.tga"}],"materials":[{"alphaMode":"OPAQUE","doubleSided":false,"extras":{"fromFBX":{"isTruePBR":false,"shadingModel":"Phong"}},"name":"M_bottles","normalTexture":{"index":0,"texCoord":0},"pbrMetallicRoughness":{"baseColorFactor":[1,1,1,1],"baseColorTexture":{"index":1,"texCoord":0},"metallicFactor":0.400000005960464,"roughnessFactor":0.301511347293854}}],"meshes":[{"name":"SM_Bottle_03","primitives":[{"attributes":{"NORMAL":3,"POSITION":2,"TANGENT":4,"TEXCOORD_0":5,"TEXCOORD_1":6},"indices":1,"material":0,"mode":4}]}],"nodes":[{"mesh":0,"name":"SM_Bottle_03","originalUnits":0.00999999977648258,"pivot":[0,0,0],"rotation":[-0.70710676908493,-0,0,0.70710676908493],"scale":[1,1,1],"translation":[0,0,0]}],"samplers":[{}],"scene":0,"scenes":[{"name":"Root Scene","nodes":[0]}],"textures":[{"name":"EnvSamplerTex","sampler":0,"source":0},{"name":"EnvSamplerTex","sampler":0,"source":1}]}