{"accessors":[{"bufferView":0,"byteOffset":0,"componentType":5126,"count":1,"max":[0],"min":[0],"type":"SCALAR"},{"bufferView":1,"byteOffset":0,"componentType":5123,"count":1152,"type":"SCALAR"},{"bufferView":2,"byteOffset":0,"componentType":5126,"count":379,"max":[1.93306875228882,1.98278498649597,0.910508096218109],"min":[-0.09484168887138,-0.08597275614738,0.00202520913444459],"type":"VEC3"},{"bufferView":3,"byteOffset":0,"componentType":5126,"count":379,"type":"VEC3"},{"bufferView":4,"byteOffset":0,"componentType":5126,"count":379,"type":"VEC4"},{"bufferView":5,"byteOffset":0,"componentType":5126,"count":379,"type":"VEC2"},{"bufferView":6,"byteOffset":0,"componentType":5126,"count":379,"type":"VEC2"}],"animations":[{"channels":[],"name":"Unreal Take","samplers":[]}],"asset":{"generator":"FBX2glTF v0.13.0","version":"2.0"},"bufferViews":[{"buffer":0,"byteLength":4,"byteOffset":0},{"buffer":0,"byteLength":2304,"byteOffset":4,"target":34963},{"buffer":0,"byteLength":4548,"byteOffset":2308,"target":34962},{"buffer":0,"byteLength":4548,"byteOffset":6856,"target":34962},{"buffer":0,"byteLength":6064,"byteOffset":11404,"target":34962},{"buffer":0,"byteLength":3032,"byteOffset":17468,"target":34962},{"buffer":0,"byteLength":3032,"byteOffset":20500,"target":34962}],"buffers":[{"byteLength":23532,"uri":"SM_BigTable.bin"}],"images":[{"name":"TX_BigTable_N","uri":"TX_BigTable_N.tga"},{"name":"TX_BigTable_EMM","uri":"TX_BigTable_EMM.tga"},{"name":"TX_BigTable_D","uri":"TX_BigTable_D.tga"}],"materials":[{"alphaMode":"OPAQUE","doubleSided":false,"emissiveFactor":[1,1,1],"emissiveTexture":{"index":1,"texCoord":0},"extras":{"fromFBX":{"isTruePBR":false,"shadingModel":"Phong"}},"name":"M_BigTableGeneral","normalTexture":{"index":0,"texCoord":0},"pbrMetallicRoughness":{"baseColorFactor":[1,1,1,1],"baseColorTexture":{"index":2,"texCoord":0},"metallicFactor":0.400000005960464,"roughnessFactor":0.301511347293854}}],"meshes":[{"name":"SM_BigTable","primitives":[{"attributes":{"NORMAL":3,"POSITION":2,"TANGENT":4,"TEXCOORD_0":5,"TEXCOORD_1":6},"indices":1,"material":0,"mode":4}]}],"nodes":[{"mesh":0,"name":"SM_BigTable","originalUnits":0.00999999977648258,"pivot":[0,0,0],"rotation":[-0.70710676908493,-0,0,0.70710676908493],"scale":[1,1,1],"translation":[0,0,0]}],"samplers":[{}],"scene":0,"scenes":[{"name":"Root Scene","nodes":[0]}],"textures":[{"name":"EnvSamplerTex","sampler":0,"source":0},{"name":"EnvSamplerTex","sampler":0,"source":1},{"name":"EnvSamplerTex","sampler":0,"source":2}]}