{"accessors":[{"bufferView":0,"byteOffset":0,"componentType":5126,"count":1,"max":[0],"min":[0],"type":"SCALAR"},{"bufferView":1,"byteOffset":0,"componentType":5123,"count":132,"type":"SCALAR"},{"bufferView":2,"byteOffset":0,"componentType":5126,"count":85,"max":[0.45225265622139,0.00000000394479382492818,0.0550528168678284],"min":[-0.04031864181161,-0.68045622110367,-0.0379822216928],"type":"VEC3"},{"bufferView":3,"byteOffset":0,"componentType":5126,"count":85,"type":"VEC3"},{"bufferView":4,"byteOffset":0,"componentType":5126,"count":85,"type":"VEC4"},{"bufferView":5,"byteOffset":0,"componentType":5126,"count":85,"type":"VEC2"},{"bufferView":6,"byteOffset":0,"componentType":5126,"count":85,"type":"VEC2"}],"animations":[{"channels":[],"name":"Unreal Take","samplers":[]}],"asset":{"generator":"FBX2glTF v0.13.0","version":"2.0"},"bufferViews":[{"buffer":0,"byteLength":4,"byteOffset":0},{"buffer":0,"byteLength":264,"byteOffset":4,"target":34963},{"buffer":0,"byteLength":1020,"byteOffset":268,"target":34962},{"buffer":0,"byteLength":1020,"byteOffset":1288,"target":34962},{"buffer":0,"byteLength":1360,"byteOffset":2308,"target":34962},{"buffer":0,"byteLength":680,"byteOffset":3668,"target":34962},{"buffer":0,"byteLength":680,"byteOffset":4348,"target":34962}],"buffers":[{"byteLength":5028,"uri":"SM_Boxes3m6.bin"}],"images":[{"name":"TX_Boxes3_N ","uri":"TX_Boxes3_N .tga"},{"name":"TX_Boxes3__D","uri":"TX_Boxes3__D.tga"}],"materials":[{"alphaMode":"OPAQUE","doubleSided":false,"extras":{"fromFBX":{"isTruePBR":false,"shadingModel":"Phong"}},"name":"M_Boxes3","normalTexture":{"index":0,"texCoord":0},"pbrMetallicRoughness":{"baseColorFactor":[1,1,1,1],"baseColorTexture":{"index":1,"texCoord":0},"metallicFactor":0.400000005960464,"roughnessFactor":0.301511347293854}}],"meshes":[{"name":"SM_Boxes3m6","primitives":[{"attributes":{"NORMAL":3,"POSITION":2,"TANGENT":4,"TEXCOORD_0":5,"TEXCOORD_1":6},"indices":1,"material":0,"mode":4}]}],"nodes":[{"mesh":0,"name":"SM_Boxes3m6","originalUnits":0.00999999977648258,"pivot":[0,0,0],"rotation":[-0.70710676908493,-0,0,0.70710676908493],"scale":[1,1,1],"translation":[0,0,0]}],"samplers":[{}],"scene":0,"scenes":[{"name":"Root Scene","nodes":[0]}],"textures":[{"name":"EnvSamplerTex","sampler":0,"source":0},{"name":"EnvSamplerTex","sampler":0,"source":1}]}