{"accessors":[{"bufferView":0,"byteOffset":0,"componentType":5126,"count":1,"max":[0],"min":[0],"type":"SCALAR"},{"bufferView":1,"byteOffset":0,"componentType":5123,"count":714,"type":"SCALAR"},{"bufferView":2,"byteOffset":0,"componentType":5126,"count":254,"max":[0.261161953210831,9.70732593536377,3.54797387123108],"min":[-0.00000003689032,-1.07636559009552,-0.02046071738005],"type":"VEC3"},{"bufferView":3,"byteOffset":0,"componentType":5126,"count":254,"type":"VEC3"},{"bufferView":4,"byteOffset":0,"componentType":5126,"count":254,"type":"VEC4"},{"bufferView":5,"byteOffset":0,"componentType":5126,"count":254,"type":"VEC2"},{"bufferView":6,"byteOffset":0,"componentType":5126,"count":254,"type":"VEC2"},{"bufferView":7,"byteOffset":0,"componentType":5123,"count":42,"type":"SCALAR"},{"bufferView":8,"byteOffset":0,"componentType":5126,"count":16,"max":[0.202825307846069,9.65179824829102,3.49594974517822],"min":[0.202825307846069,-1.02083480358124,0.0315641164779663],"type":"VEC3"},{"bufferView":9,"byteOffset":0,"componentType":5126,"count":16,"type":"VEC3"},{"bufferView":10,"byteOffset":0,"componentType":5126,"count":16,"type":"VEC4"},{"bufferView":11,"byteOffset":0,"componentType":5126,"count":16,"type":"VEC2"},{"bufferView":12,"byteOffset":0,"componentType":5126,"count":16,"type":"VEC2"}],"animations":[{"channels":[],"name":"Unreal Take","samplers":[]}],"asset":{"generator":"FBX2glTF v0.13.0","version":"2.0"},"bufferViews":[{"buffer":0,"byteLength":4,"byteOffset":0},{"buffer":0,"byteLength":1428,"byteOffset":4,"target":34963},{"buffer":0,"byteLength":3048,"byteOffset":1432,"target":34962},{"buffer":0,"byteLength":3048,"byteOffset":4480,"target":34962},{"buffer":0,"byteLength":4064,"byteOffset":7528,"target":34962},{"buffer":0,"byteLength":2032,"byteOffset":11592,"target":34962},{"buffer":0,"byteLength":2032,"byteOffset":13624,"target":34962},{"buffer":0,"byteLength":84,"byteOffset":15656,"target":34963},{"buffer":0,"byteLength":192,"byteOffset":15740,"target":34962},{"buffer":0,"byteLength":192,"byteOffset":15932,"target":34962},{"buffer":0,"byteLength":256,"byteOffset":16124,"target":34962},{"buffer":0,"byteLength":128,"byteOffset":16380,"target":34962},{"buffer":0,"byteLength":128,"byteOffset":16508,"target":34962}],"buffers":[{"byteLength":16636,"uri":"SM_BigMuppi.bin"}],"materials":[{"alphaMode":"OPAQUE","doubleSided":false,"extras":{"fromFBX":{"isTruePBR":false,"shadingModel":"Phong"}},"name":"M_Metal2","pbrMetallicRoughness":{"baseColorFactor":[0,0,0,1],"metallicFactor":0.400000005960464,"roughnessFactor":0.301511347293854}},{"alphaMode":"OPAQUE","doubleSided":false,"extras":{"fromFBX":{"isTruePBR":false,"shadingModel":"Phong"}},"name":"MP_3screensVL_Video_Mat","pbrMetallicRoughness":{"baseColorFactor":[0.21586050093174,0.21586050093174,0.21586050093174,1],"metallicFactor":0.400000005960464,"roughnessFactor":0.301511347293854}}],"meshes":[{"name":"SM_BigMuppi","primitives":[{"attributes":{"NORMAL":3,"POSITION":2,"TANGENT":4,"TEXCOORD_0":5,"TEXCOORD_1":6},"indices":1,"material":0,"mode":4},{"attributes":{"NORMAL":9,"POSITION":8,"TANGENT":10,"TEXCOORD_0":11,"TEXCOORD_1":12},"indices":7,"material":1,"mode":4}]}],"nodes":[{"mesh":0,"name":"SM_BigMuppi","originalUnits":0.00999999977648258,"pivot":[0,0,0],"rotation":[-0.70710676908493,-0,0,0.70710676908493],"scale":[1,1,1],"translation":[0,0,0]}],"samplers":[{}],"scene":0,"scenes":[{"name":"Root Scene","nodes":[0]}]}