{"accessors":[{"bufferView":0,"byteOffset":0,"componentType":5126,"count":1,"max":[0],"min":[0],"type":"SCALAR"},{"bufferView":1,"byteOffset":0,"componentType":5123,"count":351,"type":"SCALAR"},{"bufferView":2,"byteOffset":0,"componentType":5126,"count":133,"max":[0.0807611793279648,0.550970017910004,0.723781287670135],"min":[-0.02415802888572,0.0334638245403767,-0.0079007986933],"type":"VEC3"},{"bufferView":3,"byteOffset":0,"componentType":5126,"count":133,"type":"VEC3"},{"bufferView":4,"byteOffset":0,"componentType":5126,"count":133,"type":"VEC4"},{"bufferView":5,"byteOffset":0,"componentType":5126,"count":133,"type":"VEC2"},{"bufferView":6,"byteOffset":0,"componentType":5126,"count":133,"type":"VEC2"}],"animations":[{"channels":[],"name":"Unreal Take","samplers":[]}],"asset":{"generator":"FBX2glTF v0.13.0","version":"2.0"},"bufferViews":[{"buffer":0,"byteLength":4,"byteOffset":0},{"buffer":0,"byteLength":702,"byteOffset":4,"target":34963},{"buffer":0,"byteLength":1596,"byteOffset":708,"target":34962},{"buffer":0,"byteLength":1596,"byteOffset":2304,"target":34962},{"buffer":0,"byteLength":2128,"byteOffset":3900,"target":34962},{"buffer":0,"byteLength":1064,"byteOffset":6028,"target":34962},{"buffer":0,"byteLength":1064,"byteOffset":7092,"target":34962}],"buffers":[{"byteLength":8156,"uri":"SM_Books_02.bin"}],"images":[{"name":"TX_Books_and_Pens_NRM","uri":"TX_Books_and_Pens_NRM.tga"},{"name":"TX_Books_and_Pens_ALB","uri":"TX_Books_and_Pens_ALB.tga"}],"materials":[{"alphaMode":"OPAQUE","doubleSided":false,"extras":{"fromFBX":{"isTruePBR":false,"shadingModel":"Phong"}},"name":"M_Books_and_Pens","normalTexture":{"index":0,"texCoord":0},"pbrMetallicRoughness":{"baseColorFactor":[1,1,1,1],"baseColorTexture":{"index":1,"texCoord":0},"metallicFactor":0.400000005960464,"roughnessFactor":0.301511347293854}}],"meshes":[{"name":"SM_Books_02","primitives":[{"attributes":{"NORMAL":3,"POSITION":2,"TANGENT":4,"TEXCOORD_0":5,"TEXCOORD_1":6},"indices":1,"material":0,"mode":4}]}],"nodes":[{"mesh":0,"name":"SM_Books_02","originalUnits":0.00999999977648258,"pivot":[0,0,0],"rotation":[-0.70710676908493,-0,0,0.70710676908493],"scale":[1,1,1],"translation":[0,0,0]}],"samplers":[{}],"scene":0,"scenes":[{"name":"Root Scene","nodes":[0]}],"textures":[{"name":"EnvSamplerTex","sampler":0,"source":0},{"name":"EnvSamplerTex","sampler":0,"source":1}]}