{"accessors":[{"bufferView":0,"byteOffset":0,"componentType":5126,"count":1,"max":[0],"min":[0],"type":"SCALAR"},{"bufferView":1,"byteOffset":0,"componentType":5123,"count":120,"type":"SCALAR"},{"bufferView":2,"byteOffset":0,"componentType":5126,"count":68,"max":[0.0237240754067898,0.552447974681854,0.724557459354401],"min":[0.00255757919512689,0.00417563458904624,-0.00480439094827],"type":"VEC3"},{"bufferView":3,"byteOffset":0,"componentType":5126,"count":68,"type":"VEC3"},{"bufferView":4,"byteOffset":0,"componentType":5126,"count":68,"type":"VEC4"},{"bufferView":5,"byteOffset":0,"componentType":5126,"count":68,"type":"VEC2"},{"bufferView":6,"byteOffset":0,"componentType":5126,"count":68,"type":"VEC2"}],"animations":[{"channels":[],"name":"Unreal Take","samplers":[]}],"asset":{"generator":"FBX2glTF v0.13.0","version":"2.0"},"bufferViews":[{"buffer":0,"byteLength":4,"byteOffset":0},{"buffer":0,"byteLength":240,"byteOffset":4,"target":34963},{"buffer":0,"byteLength":816,"byteOffset":244,"target":34962},{"buffer":0,"byteLength":816,"byteOffset":1060,"target":34962},{"buffer":0,"byteLength":1088,"byteOffset":1876,"target":34962},{"buffer":0,"byteLength":544,"byteOffset":2964,"target":34962},{"buffer":0,"byteLength":544,"byteOffset":3508,"target":34962}],"buffers":[{"byteLength":4052,"uri":"SM_Books_06.bin"}],"images":[{"name":"TX_Books_and_Pens_NRM","uri":"TX_Books_and_Pens_NRM.tga"},{"name":"TX_Books_and_Pens_ALB","uri":"TX_Books_and_Pens_ALB.tga"}],"materials":[{"alphaMode":"OPAQUE","doubleSided":false,"extras":{"fromFBX":{"isTruePBR":false,"shadingModel":"Phong"}},"name":"M_Books_and_Pens","normalTexture":{"index":0,"texCoord":0},"pbrMetallicRoughness":{"baseColorFactor":[1,1,1,1],"baseColorTexture":{"index":1,"texCoord":0},"metallicFactor":0.400000005960464,"roughnessFactor":0.301511347293854}}],"meshes":[{"name":"SM_Books_06","primitives":[{"attributes":{"NORMAL":3,"POSITION":2,"TANGENT":4,"TEXCOORD_0":5,"TEXCOORD_1":6},"indices":1,"material":0,"mode":4}]}],"nodes":[{"mesh":0,"name":"SM_Books_06","originalUnits":0.00999999977648258,"pivot":[0,0,0],"rotation":[-0.70710676908493,-0,0,0.70710676908493],"scale":[1,1,1],"translation":[0,0,0]}],"samplers":[{}],"scene":0,"scenes":[{"name":"Root Scene","nodes":[0]}],"textures":[{"name":"EnvSamplerTex","sampler":0,"source":0},{"name":"EnvSamplerTex","sampler":0,"source":1}]}