{"accessors":[{"bufferView":0,"byteOffset":0,"componentType":5126,"count":1,"max":[0],"min":[0],"type":"SCALAR"},{"bufferView":1,"byteOffset":0,"componentType":5123,"count":432,"type":"SCALAR"},{"bufferView":2,"byteOffset":0,"componentType":5126,"count":286,"max":[0.526803731918335,0.123706474900246,0.78489738702774],"min":[-0.18767105042934,-0.67084485292435,-0],"type":"VEC3"},{"bufferView":3,"byteOffset":0,"componentType":5126,"count":286,"type":"VEC3"},{"bufferView":4,"byteOffset":0,"componentType":5126,"count":286,"type":"VEC4"},{"bufferView":5,"byteOffset":0,"componentType":5126,"count":286,"type":"VEC2"},{"bufferView":6,"byteOffset":0,"componentType":5126,"count":286,"type":"VEC2"}],"animations":[{"channels":[],"name":"Unreal Take","samplers":[]}],"asset":{"generator":"FBX2glTF v0.13.0","version":"2.0"},"bufferViews":[{"buffer":0,"byteLength":4,"byteOffset":0},{"buffer":0,"byteLength":864,"byteOffset":4,"target":34963},{"buffer":0,"byteLength":3432,"byteOffset":868,"target":34962},{"buffer":0,"byteLength":3432,"byteOffset":4300,"target":34962},{"buffer":0,"byteLength":4576,"byteOffset":7732,"target":34962},{"buffer":0,"byteLength":2288,"byteOffset":12308,"target":34962},{"buffer":0,"byteLength":2288,"byteOffset":14596,"target":34962}],"buffers":[{"byteLength":16884,"uri":"SM_Boxes3m1.bin"}],"images":[{"name":"TX_Boxes3_N ","uri":"TX_Boxes3_N .tga"},{"name":"TX_Boxes3__D","uri":"TX_Boxes3__D.tga"}],"materials":[{"alphaMode":"OPAQUE","doubleSided":false,"extras":{"fromFBX":{"isTruePBR":false,"shadingModel":"Phong"}},"name":"M_Boxes3","normalTexture":{"index":0,"texCoord":0},"pbrMetallicRoughness":{"baseColorFactor":[1,1,1,1],"baseColorTexture":{"index":1,"texCoord":0},"metallicFactor":0.400000005960464,"roughnessFactor":0.301511347293854}}],"meshes":[{"name":"SM_Boxes3m1","primitives":[{"attributes":{"NORMAL":3,"POSITION":2,"TANGENT":4,"TEXCOORD_0":5,"TEXCOORD_1":6},"indices":1,"material":0,"mode":4}]}],"nodes":[{"mesh":0,"name":"SM_Boxes3m1","originalUnits":0.00999999977648258,"pivot":[0,0,0],"rotation":[-0.70710676908493,-0,0,0.70710676908493],"scale":[1,1,1],"translation":[0,0,0]}],"samplers":[{}],"scene":0,"scenes":[{"name":"Root Scene","nodes":[0]}],"textures":[{"name":"EnvSamplerTex","sampler":0,"source":0},{"name":"EnvSamplerTex","sampler":0,"source":1}]}