{"accessors":[{"bufferView":0,"byteOffset":0,"componentType":5126,"count":1,"max":[0],"min":[0],"type":"SCALAR"},{"bufferView":1,"byteOffset":0,"componentType":5123,"count":1632,"type":"SCALAR"},{"bufferView":2,"byteOffset":0,"componentType":5126,"count":417,"max":[0.048758938908577,0.0487637855112553,0.387375146150589],"min":[-0.04875924810767,-0.04876874759793,0.0082637295126915],"type":"VEC3"},{"bufferView":3,"byteOffset":0,"componentType":5126,"count":417,"type":"VEC3"},{"bufferView":4,"byteOffset":0,"componentType":5126,"count":417,"type":"VEC4"},{"bufferView":5,"byteOffset":0,"componentType":5126,"count":417,"type":"VEC2"},{"bufferView":6,"byteOffset":0,"componentType":5126,"count":417,"type":"VEC2"}],"animations":[{"channels":[],"name":"Unreal Take","samplers":[]}],"asset":{"generator":"FBX2glTF v0.13.0","version":"2.0"},"bufferViews":[{"buffer":0,"byteLength":4,"byteOffset":0},{"buffer":0,"byteLength":3264,"byteOffset":4,"target":34963},{"buffer":0,"byteLength":5004,"byteOffset":3268,"target":34962},{"buffer":0,"byteLength":5004,"byteOffset":8272,"target":34962},{"buffer":0,"byteLength":6672,"byteOffset":13276,"target":34962},{"buffer":0,"byteLength":3336,"byteOffset":19948,"target":34962},{"buffer":0,"byteLength":3336,"byteOffset":23284,"target":34962}],"buffers":[{"byteLength":26620,"uri":"SM_Bottle_02.bin"}],"images":[{"name":"TX_bottles_NRM","uri":"TX_bottles_NRM.tga"},{"name":"TX_bottles_ALB","uri":"TX_bottles_ALB.tga"}],"materials":[{"alphaMode":"OPAQUE","doubleSided":false,"extras":{"fromFBX":{"isTruePBR":false,"shadingModel":"Phong"}},"name":"M_bottles","normalTexture":{"index":0,"texCoord":0},"pbrMetallicRoughness":{"baseColorFactor":[1,1,1,1],"baseColorTexture":{"index":1,"texCoord":0},"metallicFactor":0.400000005960464,"roughnessFactor":0.301511347293854}}],"meshes":[{"name":"SM_Bottle_02","primitives":[{"attributes":{"NORMAL":3,"POSITION":2,"TANGENT":4,"TEXCOORD_0":5,"TEXCOORD_1":6},"indices":1,"material":0,"mode":4}]}],"nodes":[{"mesh":0,"name":"SM_Bottle_02","originalUnits":0.00999999977648258,"pivot":[0,0,0],"rotation":[-0.70710676908493,-0,0,0.70710676908493],"scale":[1,1,1],"translation":[0,0,0]}],"samplers":[{}],"scene":0,"scenes":[{"name":"Root Scene","nodes":[0]}],"textures":[{"name":"EnvSamplerTex","sampler":0,"source":0},{"name":"EnvSamplerTex","sampler":0,"source":1}]}