{"accessors":[{"bufferView":0,"byteOffset":0,"componentType":5126,"count":1,"max":[0],"min":[0],"type":"SCALAR"},{"bufferView":1,"byteOffset":0,"componentType":5123,"count":3042,"type":"SCALAR"},{"bufferView":2,"byteOffset":0,"componentType":5126,"count":1070,"max":[1.75242626667023,0.885500192642212,1.04558968544006],"min":[-1.00955986976624,-0.15239989757538,0.000000000000000284217087951293],"type":"VEC3"},{"bufferView":3,"byteOffset":0,"componentType":5126,"count":1070,"type":"VEC3"},{"bufferView":4,"byteOffset":0,"componentType":5126,"count":1070,"type":"VEC4"},{"bufferView":5,"byteOffset":0,"componentType":5126,"count":1070,"type":"VEC2"},{"bufferView":6,"byteOffset":0,"componentType":5126,"count":1070,"type":"VEC2"}],"animations":[{"channels":[],"name":"Unreal Take","samplers":[]}],"asset":{"generator":"FBX2glTF v0.13.0","version":"2.0"},"bufferViews":[{"buffer":0,"byteLength":4,"byteOffset":0},{"buffer":0,"byteLength":6084,"byteOffset":4,"target":34963},{"buffer":0,"byteLength":12840,"byteOffset":6088,"target":34962},{"buffer":0,"byteLength":12840,"byteOffset":18928,"target":34962},{"buffer":0,"byteLength":17120,"byteOffset":31768,"target":34962},{"buffer":0,"byteLength":8560,"byteOffset":48888,"target":34962},{"buffer":0,"byteLength":8560,"byteOffset":57448,"target":34962}],"buffers":[{"byteLength":66008,"uri":"SM_Bed.bin"}],"images":[{"name":"TX_Bed_NRM","uri":"TX_Bed_NRM.png"},{"name":"TX_Bed_ALB","uri":"TX_Bed_ALB.png"}],"materials":[{"alphaMode":"OPAQUE","doubleSided":false,"extras":{"fromFBX":{"isTruePBR":false,"shadingModel":"Phong"}},"name":"M_Bed","normalTexture":{"index":0,"texCoord":0},"pbrMetallicRoughness":{"baseColorFactor":[1,1,1,1],"baseColorTexture":{"index":1,"texCoord":0},"metallicFactor":0.400000005960464,"roughnessFactor":0.301511347293854}}],"meshes":[{"name":"SM_Bed","primitives":[{"attributes":{"NORMAL":3,"POSITION":2,"TANGENT":4,"TEXCOORD_0":5,"TEXCOORD_1":6},"indices":1,"material":0,"mode":4}]}],"nodes":[{"mesh":0,"name":"SM_Bed","originalUnits":0.00999999977648258,"pivot":[0,0,0],"rotation":[-0.70710676908493,-0,0,0.70710676908493],"scale":[1,1,1],"translation":[0,0,0]}],"samplers":[{}],"scene":0,"scenes":[{"name":"Root Scene","nodes":[0]}],"textures":[{"name":"EnvSamplerTex","sampler":0,"source":0},{"name":"EnvSamplerTex","sampler":0,"source":1}]}