{"accessors":[{"bufferView":0,"byteOffset":0,"componentType":5126,"count":1,"max":[0],"min":[0],"type":"SCALAR"},{"bufferView":1,"byteOffset":0,"componentType":5123,"count":4512,"type":"SCALAR"},{"bufferView":2,"byteOffset":0,"componentType":5126,"count":2588,"max":[1.89073419570923,0.48227658867836,3.29393100738525],"min":[-0.027298245579,-2.13605451583862,-0.05938532575965],"type":"VEC3"},{"bufferView":3,"byteOffset":0,"componentType":5126,"count":2588,"type":"VEC3"},{"bufferView":4,"byteOffset":0,"componentType":5126,"count":2588,"type":"VEC4"},{"bufferView":5,"byteOffset":0,"componentType":5126,"count":2588,"type":"VEC2"},{"bufferView":6,"byteOffset":0,"componentType":5126,"count":2588,"type":"VEC2"}],"animations":[{"channels":[],"name":"Unreal Take","samplers":[]}],"asset":{"generator":"FBX2glTF v0.13.0","version":"2.0"},"bufferViews":[{"buffer":0,"byteLength":4,"byteOffset":0},{"buffer":0,"byteLength":9024,"byteOffset":4,"target":34963},{"buffer":0,"byteLength":31056,"byteOffset":9028,"target":34962},{"buffer":0,"byteLength":31056,"byteOffset":40084,"target":34962},{"buffer":0,"byteLength":41408,"byteOffset":71140,"target":34962},{"buffer":0,"byteLength":20704,"byteOffset":112548,"target":34962},{"buffer":0,"byteLength":20704,"byteOffset":133252,"target":34962}],"buffers":[{"byteLength":153956,"uri":"SM_Chamber.bin"}],"images":[{"name":"TX_Chamber_N ","uri":"TX_Chamber_N .tga"},{"name":"TX_Chamber__D","uri":"TX_Chamber__D.png"}],"materials":[{"alphaMode":"OPAQUE","doubleSided":false,"extras":{"fromFBX":{"isTruePBR":false,"shadingModel":"Phong"}},"name":"M_Chamber","normalTexture":{"index":0,"texCoord":0},"pbrMetallicRoughness":{"baseColorFactor":[1,1,1,1],"baseColorTexture":{"index":1,"texCoord":0},"metallicFactor":0.400000005960464,"roughnessFactor":0.301511347293854}}],"meshes":[{"name":"SM_Chamber","primitives":[{"attributes":{"NORMAL":3,"POSITION":2,"TANGENT":4,"TEXCOORD_0":5,"TEXCOORD_1":6},"indices":1,"material":0,"mode":4}]}],"nodes":[{"mesh":0,"name":"SM_Chamber","originalUnits":0.00999999977648258,"pivot":[0,0,0],"rotation":[-0.70710676908493,-0,0,0.70710676908493],"scale":[1,1,1],"translation":[0,0,0]}],"samplers":[{}],"scene":0,"scenes":[{"name":"Root Scene","nodes":[0]}],"textures":[{"name":"EnvSamplerTex","sampler":0,"source":0},{"name":"EnvSamplerTex","sampler":0,"source":1}]}