{"accessors":[{"bufferView":0,"byteOffset":0,"componentType":5126,"count":1,"max":[0],"min":[0],"type":"SCALAR"},{"bufferView":1,"byteOffset":0,"componentType":5123,"count":1488,"type":"SCALAR"},{"bufferView":2,"byteOffset":0,"componentType":5126,"count":431,"max":[0.0295850336551666,0.0403066240251064,2.79973840713501],"min":[-4.19390106201172,-1.8118577003479,-0.00114649476018],"type":"VEC3"},{"bufferView":3,"byteOffset":0,"componentType":5126,"count":431,"type":"VEC3"},{"bufferView":4,"byteOffset":0,"componentType":5126,"count":431,"type":"VEC4"},{"bufferView":5,"byteOffset":0,"componentType":5126,"count":431,"type":"VEC2"},{"bufferView":6,"byteOffset":0,"componentType":5126,"count":431,"type":"VEC2"}],"animations":[{"channels":[],"name":"Unreal Take","samplers":[]}],"asset":{"generator":"FBX2glTF v0.13.0","version":"2.0"},"bufferViews":[{"buffer":0,"byteLength":4,"byteOffset":0},{"buffer":0,"byteLength":2976,"byteOffset":4,"target":34963},{"buffer":0,"byteLength":5172,"byteOffset":2980,"target":34962},{"buffer":0,"byteLength":5172,"byteOffset":8152,"target":34962},{"buffer":0,"byteLength":6896,"byteOffset":13324,"target":34962},{"buffer":0,"byteLength":3448,"byteOffset":20220,"target":34962},{"buffer":0,"byteLength":3448,"byteOffset":23668,"target":34962}],"buffers":[{"byteLength":27116,"uri":"SM_CurtainSupport.bin"}],"images":[{"name":"TX_PowerPoint_N","uri":"TX_PowerPoint_N.tga"},{"name":"TX_PowerPoint_EMM","uri":"TX_PowerPoint_EMM.tga"},{"name":"TX_PowerPoint_D","uri":"TX_PowerPoint_D.tga"}],"materials":[{"alphaMode":"OPAQUE","doubleSided":false,"emissiveFactor":[1,1,1],"emissiveTexture":{"index":1,"texCoord":0},"extras":{"fromFBX":{"isTruePBR":false,"shadingModel":"Phong"}},"name":"M_CurtainS","normalTexture":{"index":0,"texCoord":0},"pbrMetallicRoughness":{"baseColorFactor":[1,1,1,1],"baseColorTexture":{"index":2,"texCoord":0},"metallicFactor":0.400000005960464,"roughnessFactor":0.301511347293854}}],"meshes":[{"name":"SM_CurtainSupport","primitives":[{"attributes":{"NORMAL":3,"POSITION":2,"TANGENT":4,"TEXCOORD_0":5,"TEXCOORD_1":6},"indices":1,"material":0,"mode":4}]}],"nodes":[{"mesh":0,"name":"SM_CurtainSupport","originalUnits":0.00999999977648258,"pivot":[0,0,0],"rotation":[-0.70710676908493,-0,0,0.70710676908493],"scale":[1,1,1],"translation":[0,0,0]}],"samplers":[{}],"scene":0,"scenes":[{"name":"Root Scene","nodes":[0]}],"textures":[{"name":"EnvSamplerTex","sampler":0,"source":0},{"name":"EnvSamplerTex","sampler":0,"source":1},{"name":"EnvSamplerTex","sampler":0,"source":2}]}