{"accessors":[{"bufferView":0,"byteOffset":0,"componentType":5126,"count":1,"max":[0],"min":[0],"type":"SCALAR"},{"bufferView":1,"byteOffset":0,"componentType":5123,"count":1635,"type":"SCALAR"},{"bufferView":2,"byteOffset":0,"componentType":5126,"count":685,"max":[0.549055635929108,0.355391412973404,0.239634081721306],"min":[0.00994169618934393,-0.01263169012964,0.00000258706245404028],"type":"VEC3"},{"bufferView":3,"byteOffset":0,"componentType":5126,"count":685,"type":"VEC3"},{"bufferView":4,"byteOffset":0,"componentType":5126,"count":685,"type":"VEC4"},{"bufferView":5,"byteOffset":0,"componentType":5126,"count":685,"type":"VEC2"},{"bufferView":6,"byteOffset":0,"componentType":5126,"count":685,"type":"VEC2"}],"animations":[{"channels":[],"name":"Unreal Take","samplers":[]}],"asset":{"generator":"FBX2glTF v0.13.0","version":"2.0"},"bufferViews":[{"buffer":0,"byteLength":4,"byteOffset":0},{"buffer":0,"byteLength":3270,"byteOffset":4,"target":34963},{"buffer":0,"byteLength":8220,"byteOffset":3276,"target":34962},{"buffer":0,"byteLength":8220,"byteOffset":11496,"target":34962},{"buffer":0,"byteLength":10960,"byteOffset":19716,"target":34962},{"buffer":0,"byteLength":5480,"byteOffset":30676,"target":34962},{"buffer":0,"byteLength":5480,"byteOffset":36156,"target":34962}],"buffers":[{"byteLength":41636,"uri":"SM_COMPUTER1.bin"}],"images":[{"name":"TX_Electronics_Normal","uri":"TX_Electronics_Normal.png"},{"name":"TX_Electronics_BaseColor","uri":"TX_Electronics_BaseColor.png"}],"materials":[{"alphaMode":"OPAQUE","doubleSided":false,"extras":{"fromFBX":{"isTruePBR":false,"shadingModel":"Phong"}},"name":"M_Electronics","normalTexture":{"index":0,"texCoord":0},"pbrMetallicRoughness":{"baseColorFactor":[1,1,1,1],"baseColorTexture":{"index":1,"texCoord":0},"metallicFactor":0.400000005960464,"roughnessFactor":0.301511347293854}}],"meshes":[{"name":"SM_COMPUTER1","primitives":[{"attributes":{"NORMAL":3,"POSITION":2,"TANGENT":4,"TEXCOORD_0":5,"TEXCOORD_1":6},"indices":1,"material":0,"mode":4}]}],"nodes":[{"mesh":0,"name":"SM_COMPUTER1","originalUnits":0.00999999977648258,"pivot":[0,0,0],"rotation":[-0.70710676908493,-0,0,0.70710676908493],"scale":[1,1,1],"translation":[0,0,0]}],"samplers":[{}],"scene":0,"scenes":[{"name":"Root Scene","nodes":[0]}],"textures":[{"name":"EnvSamplerTex","sampler":0,"source":0},{"name":"EnvSamplerTex","sampler":0,"source":1}]}