{"accessors":[{"bufferView":0,"byteOffset":0,"componentType":5126,"count":1,"max":[0],"min":[0],"type":"SCALAR"},{"bufferView":1,"byteOffset":0,"componentType":5123,"count":8682,"type":"SCALAR"},{"bufferView":2,"byteOffset":0,"componentType":5126,"count":1543,"max":[0.0437384322285652,-0.0661800801754,2.78464412689209],"min":[-4.21092176437378,-1.80664026737213,0.00189782900270075],"type":"VEC3"},{"bufferView":3,"byteOffset":0,"componentType":5126,"count":1543,"type":"VEC3"},{"bufferView":4,"byteOffset":0,"componentType":5126,"count":1543,"type":"VEC4"},{"bufferView":5,"byteOffset":0,"componentType":5126,"count":1543,"type":"VEC2"},{"bufferView":6,"byteOffset":0,"componentType":5126,"count":1543,"type":"VEC2"}],"animations":[{"channels":[],"name":"Unreal Take","samplers":[]}],"asset":{"generator":"FBX2glTF v0.13.0","version":"2.0"},"bufferViews":[{"buffer":0,"byteLength":4,"byteOffset":0},{"buffer":0,"byteLength":17364,"byteOffset":4,"target":34963},{"buffer":0,"byteLength":18516,"byteOffset":17368,"target":34962},{"buffer":0,"byteLength":18516,"byteOffset":35884,"target":34962},{"buffer":0,"byteLength":24688,"byteOffset":54400,"target":34962},{"buffer":0,"byteLength":12344,"byteOffset":79088,"target":34962},{"buffer":0,"byteLength":12344,"byteOffset":91432,"target":34962}],"buffers":[{"byteLength":103776,"uri":"SM_Curtain.bin"}],"images":[{"name":"TX_Curtains__N ","uri":"TX_Curtains__N .tga"},{"name":"TX_Curtains__D","uri":"TX_Curtains__D.tga"}],"materials":[{"alphaMode":"OPAQUE","doubleSided":false,"extras":{"fromFBX":{"isTruePBR":false,"shadingModel":"Phong"}},"name":"M_Curtain","normalTexture":{"index":0,"texCoord":0},"pbrMetallicRoughness":{"baseColorFactor":[1,1,1,1],"baseColorTexture":{"index":1,"texCoord":0},"metallicFactor":0.400000005960464,"roughnessFactor":0.301511347293854}}],"meshes":[{"name":"SM_Curtain","primitives":[{"attributes":{"NORMAL":3,"POSITION":2,"TANGENT":4,"TEXCOORD_0":5,"TEXCOORD_1":6},"indices":1,"material":0,"mode":4}]}],"nodes":[{"mesh":0,"name":"SM_Curtain","originalUnits":0.00999999977648258,"pivot":[0,0,0],"rotation":[-0.70710676908493,-0,0,0.70710676908493],"scale":[1,1,1],"translation":[0,0,0]}],"samplers":[{}],"scene":0,"scenes":[{"name":"Root Scene","nodes":[0]}],"textures":[{"name":"EnvSamplerTex","sampler":0,"source":0},{"name":"EnvSamplerTex","sampler":0,"source":1}]}