{"accessors":[{"bufferView":0,"byteOffset":0,"componentType":5126,"count":1,"max":[0],"min":[0],"type":"SCALAR"},{"bufferView":1,"byteOffset":0,"componentType":5123,"count":3033,"type":"SCALAR"},{"bufferView":2,"byteOffset":0,"componentType":5126,"count":774,"max":[0.631711483001709,0.00467296224087477,1.71669566631317],"min":[0.00532371690496802,-0.76975506544113,-0.00604459969327],"type":"VEC3"},{"bufferView":3,"byteOffset":0,"componentType":5126,"count":774,"type":"VEC3"},{"bufferView":4,"byteOffset":0,"componentType":5126,"count":774,"type":"VEC4"},{"bufferView":5,"byteOffset":0,"componentType":5126,"count":774,"type":"VEC2"},{"bufferView":6,"byteOffset":0,"componentType":5126,"count":774,"type":"VEC2"},{"bufferView":7,"byteOffset":0,"componentType":5123,"count":111,"type":"SCALAR"},{"bufferView":8,"byteOffset":0,"componentType":5126,"count":32,"max":[0.485065370798111,-0.4665844142437,1.64943313598633],"min":[0.154135286808014,-0.56873112916946,1.44200873374939],"type":"VEC3"},{"bufferView":9,"byteOffset":0,"componentType":5126,"count":32,"type":"VEC3"},{"bufferView":10,"byteOffset":0,"componentType":5126,"count":32,"type":"VEC4"},{"bufferView":11,"byteOffset":0,"componentType":5126,"count":32,"type":"VEC2"},{"bufferView":12,"byteOffset":0,"componentType":5126,"count":32,"type":"VEC2"}],"animations":[{"channels":[],"name":"Unreal Take","samplers":[]}],"asset":{"generator":"FBX2glTF v0.13.0","version":"2.0"},"bufferViews":[{"buffer":0,"byteLength":4,"byteOffset":0},{"buffer":0,"byteLength":6066,"byteOffset":4,"target":34963},{"buffer":0,"byteLength":9288,"byteOffset":6072,"target":34962},{"buffer":0,"byteLength":9288,"byteOffset":15360,"target":34962},{"buffer":0,"byteLength":12384,"byteOffset":24648,"target":34962},{"buffer":0,"byteLength":6192,"byteOffset":37032,"target":34962},{"buffer":0,"byteLength":6192,"byteOffset":43224,"target":34962},{"buffer":0,"byteLength":222,"byteOffset":49416,"target":34963},{"buffer":0,"byteLength":384,"byteOffset":49640,"target":34962},{"buffer":0,"byteLength":384,"byteOffset":50024,"target":34962},{"buffer":0,"byteLength":512,"byteOffset":50408,"target":34962},{"buffer":0,"byteLength":256,"byteOffset":50920,"target":34962},{"buffer":0,"byteLength":256,"byteOffset":51176,"target":34962}],"buffers":[{"byteLength":51432,"uri":"SM_Computer_01.bin"}],"images":[{"name":"T_Signs_J1_N","uri":"T_Signs_J1_N.png"},{"name":"T_Signs_J1_D","uri":"T_Signs_J1_D.png"}],"materials":[{"alphaMode":"OPAQUE","doubleSided":false,"extras":{"fromFBX":{"isTruePBR":false,"shadingModel":"Phong"}},"name":"M_Computer_01","normalTexture":{"index":0,"texCoord":0},"pbrMetallicRoughness":{"baseColorFactor":[1,1,1,1],"baseColorTexture":{"index":1,"texCoord":0},"metallicFactor":0.400000005960464,"roughnessFactor":0.301511347293854}},{"alphaMode":"OPAQUE","doubleSided":false,"extras":{"fromFBX":{"isTruePBR":false,"shadingModel":"Phong"}},"name":"MP_3screensVL_Video_Mat","pbrMetallicRoughness":{"baseColorFactor":[0.21586050093174,0.21586050093174,0.21586050093174,1],"metallicFactor":0.400000005960464,"roughnessFactor":0.301511347293854}}],"meshes":[{"name":"SM_Computer_01","primitives":[{"attributes":{"NORMAL":3,"POSITION":2,"TANGENT":4,"TEXCOORD_0":5,"TEXCOORD_1":6},"indices":1,"material":0,"mode":4},{"attributes":{"NORMAL":9,"POSITION":8,"TANGENT":10,"TEXCOORD_0":11,"TEXCOORD_1":12},"indices":7,"material":1,"mode":4}]}],"nodes":[{"mesh":0,"name":"SM_Computer_01","originalUnits":0.00999999977648258,"pivot":[0,0,0],"rotation":[-0.70710676908493,-0,0,0.70710676908493],"scale":[1,1,1],"translation":[0,0,0]}],"samplers":[{}],"scene":0,"scenes":[{"name":"Root Scene","nodes":[0]}],"textures":[{"name":"EnvSamplerTex","sampler":0,"source":0},{"name":"EnvSamplerTex","sampler":0,"source":1}]}