{"accessors":[{"bufferView":0,"byteOffset":0,"componentType":5126,"count":1,"max":[0],"min":[0],"type":"SCALAR"},{"bufferView":1,"byteOffset":0,"componentType":5123,"count":25536,"type":"SCALAR"},{"bufferView":2,"byteOffset":0,"componentType":5126,"count":4397,"max":[1.02255702018738,0.682459712028503,0.0151773737743497],"min":[-0.07942409068346,-0.60809570550919,-1.13588953018188],"type":"VEC3"},{"bufferView":3,"byteOffset":0,"componentType":5126,"count":4397,"type":"VEC3"},{"bufferView":4,"byteOffset":0,"componentType":5126,"count":4397,"type":"VEC4"},{"bufferView":5,"byteOffset":0,"componentType":5126,"count":4397,"type":"VEC2"},{"bufferView":6,"byteOffset":0,"componentType":5126,"count":4397,"type":"VEC2"}],"animations":[{"channels":[],"name":"Unreal Take","samplers":[]}],"asset":{"generator":"FBX2glTF v0.13.0","version":"2.0"},"bufferViews":[{"buffer":0,"byteLength":4,"byteOffset":0},{"buffer":0,"byteLength":51072,"byteOffset":4,"target":34963},{"buffer":0,"byteLength":52764,"byteOffset":51076,"target":34962},{"buffer":0,"byteLength":52764,"byteOffset":103840,"target":34962},{"buffer":0,"byteLength":70352,"byteOffset":156604,"target":34962},{"buffer":0,"byteLength":35176,"byteOffset":226956,"target":34962},{"buffer":0,"byteLength":35176,"byteOffset":262132,"target":34962}],"buffers":[{"byteLength":297308,"uri":"SM_CableCloth.bin"}],"images":[{"name":"TX_CableCloth_N","uri":"TX_CableCloth_N.tga"},{"name":"TX_CableCloth_D","uri":"TX_CableCloth_D.tga"}],"materials":[{"alphaMode":"OPAQUE","doubleSided":false,"extras":{"fromFBX":{"isTruePBR":false,"shadingModel":"Phong"}},"name":"M_CableCloth","normalTexture":{"index":0,"texCoord":0},"pbrMetallicRoughness":{"baseColorFactor":[1,1,1,1],"baseColorTexture":{"index":1,"texCoord":0},"metallicFactor":0.400000005960464,"roughnessFactor":0.301511347293854}}],"meshes":[{"name":"SM_CableCloth","primitives":[{"attributes":{"NORMAL":3,"POSITION":2,"TANGENT":4,"TEXCOORD_0":5,"TEXCOORD_1":6},"indices":1,"material":0,"mode":4}]}],"nodes":[{"mesh":0,"name":"SM_CableCloth","originalUnits":0.00999999977648258,"pivot":[0,0,0],"rotation":[-0.70710676908493,-0,0,0.70710676908493],"scale":[1,1,1],"translation":[0,0,0]}],"samplers":[{}],"scene":0,"scenes":[{"name":"Root Scene","nodes":[0]}],"textures":[{"name":"EnvSamplerTex","sampler":0,"source":0},{"name":"EnvSamplerTex","sampler":0,"source":1}]}