{"accessors":[{"bufferView":0,"byteOffset":0,"componentType":5126,"count":1,"max":[0],"min":[0],"type":"SCALAR"},{"bufferView":1,"byteOffset":0,"componentType":5123,"count":84,"type":"SCALAR"},{"bufferView":2,"byteOffset":0,"componentType":5126,"count":48,"max":[0.673037111759186,0,4],"min":[-0.04421386495233,-0.7172509431839,-0],"type":"VEC3"},{"bufferView":3,"byteOffset":0,"componentType":5126,"count":48,"type":"VEC3"},{"bufferView":4,"byteOffset":0,"componentType":5126,"count":48,"type":"VEC4"},{"bufferView":5,"byteOffset":0,"componentType":5126,"count":48,"type":"VEC2"},{"bufferView":6,"byteOffset":0,"componentType":5126,"count":48,"type":"VEC2"}],"animations":[{"channels":[],"name":"Unreal Take","samplers":[]}],"asset":{"generator":"FBX2glTF v0.13.0","version":"2.0"},"bufferViews":[{"buffer":0,"byteLength":4,"byteOffset":0},{"buffer":0,"byteLength":168,"byteOffset":4,"target":34963},{"buffer":0,"byteLength":576,"byteOffset":172,"target":34962},{"buffer":0,"byteLength":576,"byteOffset":748,"target":34962},{"buffer":0,"byteLength":768,"byteOffset":1324,"target":34962},{"buffer":0,"byteLength":384,"byteOffset":2092,"target":34962},{"buffer":0,"byteLength":384,"byteOffset":2476,"target":34962}],"buffers":[{"byteLength":2860,"uri":"SM_ConcretePillar_02.bin"}],"materials":[{"alphaMode":"OPAQUE","doubleSided":false,"extras":{"fromFBX":{"isTruePBR":false,"shadingModel":"Lambert"}},"name":"Fbx Default Material","pbrMetallicRoughness":{"baseColorFactor":[0.720000028610229,0.720000028610229,0.720000028610229,1],"metallicFactor":0.200000002980232,"roughnessFactor":0.800000011920929}}],"meshes":[{"name":"SM_ConcretePillar_02","primitives":[{"attributes":{"NORMAL":3,"POSITION":2,"TANGENT":4,"TEXCOORD_0":5,"TEXCOORD_1":6},"indices":1,"material":0,"mode":4}]}],"nodes":[{"mesh":0,"name":"SM_ConcretePillar_02","originalUnits":0.00999999977648258,"pivot":[0,0,0],"rotation":[-0.70710676908493,-0,0,0.70710676908493],"scale":[1,1,1],"translation":[0,0,0]}],"samplers":[{}],"scene":0,"scenes":[{"name":"Root Scene","nodes":[0]}]}