{"accessors":[{"bufferView":0,"byteOffset":0,"componentType":5126,"count":1,"max":[0],"min":[0],"type":"SCALAR"},{"bufferView":1,"byteOffset":0,"componentType":5123,"count":348,"type":"SCALAR"},{"bufferView":2,"byteOffset":0,"componentType":5126,"count":198,"max":[0.00294102635234594,0.0238268114626408,0.970686316490173],"min":[-0.83499664068222,-0.36747652292252,0.0145599422976375],"type":"VEC3"},{"bufferView":3,"byteOffset":0,"componentType":5126,"count":198,"type":"VEC3"},{"bufferView":4,"byteOffset":0,"componentType":5126,"count":198,"type":"VEC4"},{"bufferView":5,"byteOffset":0,"componentType":5126,"count":198,"type":"VEC2"},{"bufferView":6,"byteOffset":0,"componentType":5126,"count":198,"type":"VEC2"}],"animations":[{"channels":[],"name":"Unreal Take","samplers":[]}],"asset":{"generator":"FBX2glTF v0.13.0","version":"2.0"},"bufferViews":[{"buffer":0,"byteLength":4,"byteOffset":0},{"buffer":0,"byteLength":696,"byteOffset":4,"target":34963},{"buffer":0,"byteLength":2376,"byteOffset":700,"target":34962},{"buffer":0,"byteLength":2376,"byteOffset":3076,"target":34962},{"buffer":0,"byteLength":3168,"byteOffset":5452,"target":34962},{"buffer":0,"byteLength":1584,"byteOffset":8620,"target":34962},{"buffer":0,"byteLength":1584,"byteOffset":10204,"target":34962}],"buffers":[{"byteLength":11788,"uri":"SM_Cpu.bin"}],"images":[{"name":"TX_CPU_N","uri":"TX_CPU_N.tga"},{"name":"TX_CPU_D","uri":"TX_CPU_D.tga"}],"materials":[{"alphaMode":"OPAQUE","doubleSided":false,"extras":{"fromFBX":{"isTruePBR":false,"shadingModel":"Phong"}},"name":"M_Cpu","normalTexture":{"index":0,"texCoord":0},"pbrMetallicRoughness":{"baseColorFactor":[1,1,1,1],"baseColorTexture":{"index":1,"texCoord":0},"metallicFactor":0.400000005960464,"roughnessFactor":0.301511347293854}}],"meshes":[{"name":"SM_Cpu","primitives":[{"attributes":{"NORMAL":3,"POSITION":2,"TANGENT":4,"TEXCOORD_0":5,"TEXCOORD_1":6},"indices":1,"material":0,"mode":4}]}],"nodes":[{"mesh":0,"name":"SM_Cpu","originalUnits":0.00999999977648258,"pivot":[0,0,0],"rotation":[-0.70710676908493,-0,0,0.70710676908493],"scale":[1,1,1],"translation":[0,0,0]}],"samplers":[{}],"scene":0,"scenes":[{"name":"Root Scene","nodes":[0]}],"textures":[{"name":"EnvSamplerTex","sampler":0,"source":0},{"name":"EnvSamplerTex","sampler":0,"source":1}]}