{"accessors":[{"bufferView":0,"byteOffset":0,"componentType":5126,"count":1,"max":[0],"min":[0],"type":"SCALAR"},{"bufferView":1,"byteOffset":0,"componentType":5123,"count":6069,"type":"SCALAR"},{"bufferView":2,"byteOffset":0,"componentType":5126,"count":1097,"max":[1.31480133533478,0.824801921844482,0.886494517326355],"min":[-1.31480133533478,-0.82480174303055,-0.88649451732635],"type":"VEC3"},{"bufferView":3,"byteOffset":0,"componentType":5126,"count":1097,"type":"VEC3"},{"bufferView":4,"byteOffset":0,"componentType":5126,"count":1097,"type":"VEC4"},{"bufferView":5,"byteOffset":0,"componentType":5126,"count":1097,"type":"VEC2"},{"bufferView":6,"byteOffset":0,"componentType":5126,"count":1097,"type":"VEC2"}],"animations":[{"channels":[],"name":"Unreal Take","samplers":[]}],"asset":{"generator":"FBX2glTF v0.13.0","version":"2.0"},"bufferViews":[{"buffer":0,"byteLength":4,"byteOffset":0},{"buffer":0,"byteLength":12138,"byteOffset":4,"target":34963},{"buffer":0,"byteLength":13164,"byteOffset":12144,"target":34962},{"buffer":0,"byteLength":13164,"byteOffset":25308,"target":34962},{"buffer":0,"byteLength":17552,"byteOffset":38472,"target":34962},{"buffer":0,"byteLength":8776,"byteOffset":56024,"target":34962},{"buffer":0,"byteLength":8776,"byteOffset":64800,"target":34962}],"buffers":[{"byteLength":73576,"uri":"SM_ChairCloth.bin"}],"images":[{"name":"TX_ChairCloth_D","uri":"TX_ChairCloth_D.tga"}],"materials":[{"alphaMode":"OPAQUE","doubleSided":false,"extras":{"fromFBX":{"isTruePBR":false,"shadingModel":"Phong"}},"name":"M_ChairCloth","pbrMetallicRoughness":{"baseColorFactor":[1,1,1,1],"baseColorTexture":{"index":0,"texCoord":0},"metallicFactor":0.400000005960464,"roughnessFactor":0.301511347293854}}],"meshes":[{"name":"SM_ChairCloth","primitives":[{"attributes":{"NORMAL":3,"POSITION":2,"TANGENT":4,"TEXCOORD_0":5,"TEXCOORD_1":6},"indices":1,"material":0,"mode":4}]}],"nodes":[{"mesh":0,"name":"SM_ChairCloth","originalUnits":0.00999999977648258,"pivot":[0,0,0],"rotation":[-0.70710676908493,-0,0,0.70710676908493],"scale":[1,1,1],"translation":[0,0,0]}],"samplers":[{}],"scene":0,"scenes":[{"name":"Root Scene","nodes":[0]}],"textures":[{"name":"EnvSamplerTex","sampler":0,"source":0}]}