{"accessors":[{"bufferView":0,"byteOffset":0,"componentType":5126,"count":1,"max":[0],"min":[0],"type":"SCALAR"},{"bufferView":1,"byteOffset":0,"componentType":5123,"count":16578,"type":"SCALAR"},{"bufferView":2,"byteOffset":0,"componentType":5126,"count":6059,"max":[1.11453604698181,0.553288400173187,1.62503492832184],"min":[-0.10180404782295,-1.77309465408325,-0.00000007875705],"type":"VEC3"},{"bufferView":3,"byteOffset":0,"componentType":5126,"count":6059,"type":"VEC3"},{"bufferView":4,"byteOffset":0,"componentType":5126,"count":6059,"type":"VEC4"},{"bufferView":5,"byteOffset":0,"componentType":5126,"count":6059,"type":"VEC2"},{"bufferView":6,"byteOffset":0,"componentType":5126,"count":6059,"type":"VEC2"}],"animations":[{"channels":[],"name":"Unreal Take","samplers":[]}],"asset":{"generator":"FBX2glTF v0.13.0","version":"2.0"},"bufferViews":[{"buffer":0,"byteLength":4,"byteOffset":0},{"buffer":0,"byteLength":33156,"byteOffset":4,"target":34963},{"buffer":0,"byteLength":72708,"byteOffset":33160,"target":34962},{"buffer":0,"byteLength":72708,"byteOffset":105868,"target":34962},{"buffer":0,"byteLength":96944,"byteOffset":178576,"target":34962},{"buffer":0,"byteLength":48472,"byteOffset":275520,"target":34962},{"buffer":0,"byteLength":48472,"byteOffset":323992,"target":34962}],"buffers":[{"byteLength":372464,"uri":"SM_Chair.bin"}],"images":[{"name":"TX_Chair_NRM","uri":"TX_Chair_NRM.png"},{"name":"TX_Chair_ALB","uri":"TX_Chair_ALB.png"}],"materials":[{"alphaMode":"OPAQUE","doubleSided":false,"extras":{"fromFBX":{"isTruePBR":false,"shadingModel":"Phong"}},"name":"M_Chair","normalTexture":{"index":0,"texCoord":0},"pbrMetallicRoughness":{"baseColorFactor":[1,1,1,1],"baseColorTexture":{"index":1,"texCoord":0},"metallicFactor":0.400000005960464,"roughnessFactor":0.301511347293854}}],"meshes":[{"name":"SM_Chair","primitives":[{"attributes":{"NORMAL":3,"POSITION":2,"TANGENT":4,"TEXCOORD_0":5,"TEXCOORD_1":6},"indices":1,"material":0,"mode":4}]}],"nodes":[{"mesh":0,"name":"SM_Chair","originalUnits":0.00999999977648258,"pivot":[0,0,0],"rotation":[-0.70710676908493,-0,0,0.70710676908493],"scale":[1,1,1],"translation":[0,0,0]}],"samplers":[{}],"scene":0,"scenes":[{"name":"Root Scene","nodes":[0]}],"textures":[{"name":"EnvSamplerTex","sampler":0,"source":0},{"name":"EnvSamplerTex","sampler":0,"source":1}]}