{"accessors":[{"bufferView":0,"byteOffset":0,"componentType":5126,"count":1,"max":[0],"min":[0],"type":"SCALAR"},{"bufferView":1,"byteOffset":0,"componentType":5123,"count":2979,"type":"SCALAR"},{"bufferView":2,"byteOffset":0,"componentType":5126,"count":845,"max":[0.175842598080635,0.136175110936165,1.18409740924835],"min":[-0.60478633642197,-3.68896818161011,-0.00042715875315],"type":"VEC3"},{"bufferView":3,"byteOffset":0,"componentType":5126,"count":845,"type":"VEC3"},{"bufferView":4,"byteOffset":0,"componentType":5126,"count":845,"type":"VEC4"},{"bufferView":5,"byteOffset":0,"componentType":5126,"count":845,"type":"VEC2"},{"bufferView":6,"byteOffset":0,"componentType":5126,"count":845,"type":"VEC2"}],"animations":[{"channels":[],"name":"Unreal Take","samplers":[]}],"asset":{"generator":"FBX2glTF v0.13.0","version":"2.0"},"bufferViews":[{"buffer":0,"byteLength":4,"byteOffset":0},{"buffer":0,"byteLength":5958,"byteOffset":4,"target":34963},{"buffer":0,"byteLength":10140,"byteOffset":5964,"target":34962},{"buffer":0,"byteLength":10140,"byteOffset":16104,"target":34962},{"buffer":0,"byteLength":13520,"byteOffset":26244,"target":34962},{"buffer":0,"byteLength":6760,"byteOffset":39764,"target":34962},{"buffer":0,"byteLength":6760,"byteOffset":46524,"target":34962}],"buffers":[{"byteLength":53284,"uri":"SM_DeskMonitors.bin"}],"images":[{"name":"TX_DeskMonitors_N","uri":"TX_DeskMonitors_N.tga"},{"name":"TX_DeskMonitors_D","uri":"TX_DeskMonitors_D.tga"}],"materials":[{"alphaMode":"OPAQUE","doubleSided":false,"extras":{"fromFBX":{"isTruePBR":false,"shadingModel":"Phong"}},"name":"M_DeskMonitors","normalTexture":{"index":0,"texCoord":0},"pbrMetallicRoughness":{"baseColorFactor":[1,1,1,1],"baseColorTexture":{"index":1,"texCoord":0},"metallicFactor":0.400000005960464,"roughnessFactor":0.301511347293854}}],"meshes":[{"name":"SM_DeskMonitors","primitives":[{"attributes":{"NORMAL":3,"POSITION":2,"TANGENT":4,"TEXCOORD_0":5,"TEXCOORD_1":6},"indices":1,"material":0,"mode":4}]}],"nodes":[{"mesh":0,"name":"SM_DeskMonitors","originalUnits":0.00999999977648258,"pivot":[0,0,0],"rotation":[-0.70710676908493,-0,0,0.70710676908493],"scale":[1,1,1],"translation":[0,0,0]}],"samplers":[{}],"scene":0,"scenes":[{"name":"Root Scene","nodes":[0]}],"textures":[{"name":"EnvSamplerTex","sampler":0,"source":0},{"name":"EnvSamplerTex","sampler":0,"source":1}]}