{"accessors":[{"bufferView":0,"byteOffset":0,"componentType":5126,"count":1,"max":[0],"min":[0],"type":"SCALAR"},{"bufferView":1,"byteOffset":0,"componentType":5123,"count":2400,"type":"SCALAR"},{"bufferView":2,"byteOffset":0,"componentType":5126,"count":831,"max":[1.36323082447052,0.0416943207383156,0.973249137401581],"min":[-0.02392750047147,-5.1742205619812,-0.00475260522217],"type":"VEC3"},{"bufferView":3,"byteOffset":0,"componentType":5126,"count":831,"type":"VEC3"},{"bufferView":4,"byteOffset":0,"componentType":5126,"count":831,"type":"VEC4"},{"bufferView":5,"byteOffset":0,"componentType":5126,"count":831,"type":"VEC2"},{"bufferView":6,"byteOffset":0,"componentType":5126,"count":831,"type":"VEC2"}],"animations":[{"channels":[],"name":"Unreal Take","samplers":[]}],"asset":{"generator":"FBX2glTF v0.13.0","version":"2.0"},"bufferViews":[{"buffer":0,"byteLength":4,"byteOffset":0},{"buffer":0,"byteLength":4800,"byteOffset":4,"target":34963},{"buffer":0,"byteLength":9972,"byteOffset":4804,"target":34962},{"buffer":0,"byteLength":9972,"byteOffset":14776,"target":34962},{"buffer":0,"byteLength":13296,"byteOffset":24748,"target":34962},{"buffer":0,"byteLength":6648,"byteOffset":38044,"target":34962},{"buffer":0,"byteLength":6648,"byteOffset":44692,"target":34962}],"buffers":[{"byteLength":51340,"uri":"SM_Desk.bin"}],"images":[{"name":"TX_Desk_N","uri":"TX_Desk_N.tga"},{"name":"TX_Desk_D","uri":"TX_Desk_D.tga"}],"materials":[{"alphaMode":"OPAQUE","doubleSided":false,"extras":{"fromFBX":{"isTruePBR":false,"shadingModel":"Phong"}},"name":"M_Desk","normalTexture":{"index":0,"texCoord":0},"pbrMetallicRoughness":{"baseColorFactor":[1,1,1,1],"baseColorTexture":{"index":1,"texCoord":0},"metallicFactor":0.400000005960464,"roughnessFactor":0.301511347293854}}],"meshes":[{"name":"SM_Desk","primitives":[{"attributes":{"NORMAL":3,"POSITION":2,"TANGENT":4,"TEXCOORD_0":5,"TEXCOORD_1":6},"indices":1,"material":0,"mode":4}]}],"nodes":[{"mesh":0,"name":"SM_Desk","originalUnits":0.00999999977648258,"pivot":[0,0,0],"rotation":[-0.70710676908493,-0,0,0.70710676908493],"scale":[1,1,1],"translation":[0,0,0]}],"samplers":[{}],"scene":0,"scenes":[{"name":"Root Scene","nodes":[0]}],"textures":[{"name":"EnvSamplerTex","sampler":0,"source":0},{"name":"EnvSamplerTex","sampler":0,"source":1}]}