{"accessors":[{"bufferView":0,"byteOffset":0,"componentType":5126,"count":1,"max":[0],"min":[0],"type":"SCALAR"},{"bufferView":1,"byteOffset":0,"componentType":5123,"count":2346,"type":"SCALAR"},{"bufferView":2,"byteOffset":0,"componentType":5126,"count":1354,"max":[1.01102828979492,0.0279282294213772,1.78902566432953],"min":[-0.00844036974013,-0.63431143760681,0.00012968000373803],"type":"VEC3"},{"bufferView":3,"byteOffset":0,"componentType":5126,"count":1354,"type":"VEC3"},{"bufferView":4,"byteOffset":0,"componentType":5126,"count":1354,"type":"VEC4"},{"bufferView":5,"byteOffset":0,"componentType":5126,"count":1354,"type":"VEC2"},{"bufferView":6,"byteOffset":0,"componentType":5126,"count":1354,"type":"VEC2"}],"animations":[{"channels":[],"name":"Unreal Take","samplers":[]}],"asset":{"generator":"FBX2glTF v0.13.0","version":"2.0"},"bufferViews":[{"buffer":0,"byteLength":4,"byteOffset":0},{"buffer":0,"byteLength":4692,"byteOffset":4,"target":34963},{"buffer":0,"byteLength":16248,"byteOffset":4696,"target":34962},{"buffer":0,"byteLength":16248,"byteOffset":20944,"target":34962},{"buffer":0,"byteLength":21664,"byteOffset":37192,"target":34962},{"buffer":0,"byteLength":10832,"byteOffset":58856,"target":34962},{"buffer":0,"byteLength":10832,"byteOffset":69688,"target":34962}],"buffers":[{"byteLength":80520,"uri":"SM_EntrComp.bin"}],"images":[{"name":"TX_EntrComp_N","uri":"TX_EntrComp_N.tga"},{"name":"TX_EntrComp_D","uri":"TX_EntrComp_D.tga"}],"materials":[{"alphaMode":"OPAQUE","doubleSided":false,"extras":{"fromFBX":{"isTruePBR":false,"shadingModel":"Phong"}},"name":"M_EntrComp","normalTexture":{"index":0,"texCoord":0},"pbrMetallicRoughness":{"baseColorFactor":[1,1,1,1],"baseColorTexture":{"index":1,"texCoord":0},"metallicFactor":0.400000005960464,"roughnessFactor":0.301511347293854}}],"meshes":[{"name":"SM_EntrComp","primitives":[{"attributes":{"NORMAL":3,"POSITION":2,"TANGENT":4,"TEXCOORD_0":5,"TEXCOORD_1":6},"indices":1,"material":0,"mode":4}]}],"nodes":[{"mesh":0,"name":"SM_EntrComp","originalUnits":0.00999999977648258,"pivot":[0,0,0],"rotation":[-0.70710676908493,-0,0,0.70710676908493],"scale":[1,1,1],"translation":[0,0,0]}],"samplers":[{}],"scene":0,"scenes":[{"name":"Root Scene","nodes":[0]}],"textures":[{"name":"EnvSamplerTex","sampler":0,"source":0},{"name":"EnvSamplerTex","sampler":0,"source":1}]}