{"accessors":[{"bufferView":0,"byteOffset":0,"componentType":5126,"count":1,"max":[0],"min":[0],"type":"SCALAR"},{"bufferView":1,"byteOffset":0,"componentType":5123,"count":1464,"type":"SCALAR"},{"bufferView":2,"byteOffset":0,"componentType":5126,"count":648,"max":[0.378791749477386,0.660924434661865,0.0874691680073738],"min":[-0.55252748727798,-0.23660136759281,-0.06895249336958],"type":"VEC3"},{"bufferView":3,"byteOffset":0,"componentType":5126,"count":648,"type":"VEC3"},{"bufferView":4,"byteOffset":0,"componentType":5126,"count":648,"type":"VEC4"},{"bufferView":5,"byteOffset":0,"componentType":5126,"count":648,"type":"VEC2"},{"bufferView":6,"byteOffset":0,"componentType":5126,"count":648,"type":"VEC2"}],"animations":[{"channels":[],"name":"Unreal Take","samplers":[]}],"asset":{"generator":"FBX2glTF v0.13.0","version":"2.0"},"bufferViews":[{"buffer":0,"byteLength":4,"byteOffset":0},{"buffer":0,"byteLength":2928,"byteOffset":4,"target":34963},{"buffer":0,"byteLength":7776,"byteOffset":2932,"target":34962},{"buffer":0,"byteLength":7776,"byteOffset":10708,"target":34962},{"buffer":0,"byteLength":10368,"byteOffset":18484,"target":34962},{"buffer":0,"byteLength":5184,"byteOffset":28852,"target":34962},{"buffer":0,"byteLength":5184,"byteOffset":34036,"target":34962}],"buffers":[{"byteLength":39220,"uri":"SM_Food_Box_03.bin"}],"images":[{"name":"TX_Food_NRM","uri":"TX_Food_NRM.tga"},{"name":"TX_Food","uri":"TX_Food.tga"}],"materials":[{"alphaMode":"OPAQUE","doubleSided":false,"extras":{"fromFBX":{"isTruePBR":false,"shadingModel":"Phong"}},"name":"M_Food","normalTexture":{"index":0,"texCoord":0},"pbrMetallicRoughness":{"baseColorFactor":[1,1,1,1],"baseColorTexture":{"index":1,"texCoord":0},"metallicFactor":0.400000005960464,"roughnessFactor":0.301511347293854}}],"meshes":[{"name":"SM_Food_Box_03","primitives":[{"attributes":{"NORMAL":3,"POSITION":2,"TANGENT":4,"TEXCOORD_0":5,"TEXCOORD_1":6},"indices":1,"material":0,"mode":4}]}],"nodes":[{"mesh":0,"name":"SM_Food_Box_03","originalUnits":0.00999999977648258,"pivot":[0,0,0],"rotation":[-0.70710676908493,-0,0,0.70710676908493],"scale":[1,1,1],"translation":[0,0,0]}],"samplers":[{}],"scene":0,"scenes":[{"name":"Root Scene","nodes":[0]}],"textures":[{"name":"EnvSamplerTex","sampler":0,"source":0},{"name":"EnvSamplerTex","sampler":0,"source":1}]}