{"accessors":[{"bufferView":0,"byteOffset":0,"componentType":5123,"count":6,"type":"SCALAR"},{"bufferView":1,"byteOffset":0,"componentType":5126,"count":4,"max":[2,0.800000131130219,0],"min":[0,0,-0],"type":"VEC3"},{"bufferView":2,"byteOffset":0,"componentType":5126,"count":4,"type":"VEC3"},{"bufferView":3,"byteOffset":0,"componentType":5126,"count":4,"type":"VEC2"},{"bufferView":4,"byteOffset":0,"componentType":5126,"count":4,"type":"VEC2"}],"asset":{"generator":"FBX2glTF v0.13.0","version":"2.0"},"bufferViews":[{"buffer":0,"byteLength":12,"byteOffset":0,"target":34963},{"buffer":0,"byteLength":48,"byteOffset":12,"target":34962},{"buffer":0,"byteLength":48,"byteOffset":60,"target":34962},{"buffer":0,"byteLength":32,"byteOffset":108,"target":34962},{"buffer":0,"byteLength":32,"byteOffset":140,"target":34962}],"buffers":[{"byteLength":172,"uri":"SM_Floor_01.bin"}],"materials":[{"alphaMode":"OPAQUE","doubleSided":false,"extras":{"fromFBX":{"isTruePBR":false,"shadingModel":"Phong"}},"name":"M_Metal2","pbrMetallicRoughness":{"baseColorFactor":[0,0,0,1],"metallicFactor":0.400000005960464,"roughnessFactor":0.301511347293854}}],"meshes":[{"name":"SM_Floor_01","primitives":[{"attributes":{"NORMAL":2,"POSITION":1,"TEXCOORD_0":3,"TEXCOORD_1":4},"indices":0,"material":0,"mode":4}]}],"nodes":[{"mesh":0,"name":"SM_Floor_01","originalUnits":0.00999999977648258,"pivot":[0,0,0],"rotation":[-0.70710682868957,0,0,0.707106709480286],"scale":[1,1,1],"translation":[0,0,0]}],"samplers":[{}],"scene":0,"scenes":[{"name":"Root Scene","nodes":[0]}]}