{"accessors":[{"bufferView":0,"byteOffset":0,"componentType":5126,"count":1,"max":[0],"min":[0],"type":"SCALAR"},{"bufferView":1,"byteOffset":0,"componentType":5123,"count":6150,"type":"SCALAR"},{"bufferView":2,"byteOffset":0,"componentType":5126,"count":4160,"max":[0.841057479381561,-0.00069712375989,0.0508164092898369],"min":[0.0015103459591046,-0.31038385629654,-0.00162339583039],"type":"VEC3"},{"bufferView":3,"byteOffset":0,"componentType":5126,"count":4160,"type":"VEC3"},{"bufferView":4,"byteOffset":0,"componentType":5126,"count":4160,"type":"VEC4"},{"bufferView":5,"byteOffset":0,"componentType":5126,"count":4160,"type":"VEC2"},{"bufferView":6,"byteOffset":0,"componentType":5126,"count":4160,"type":"VEC2"}],"animations":[{"channels":[],"name":"Unreal Take","samplers":[]}],"asset":{"generator":"FBX2glTF v0.13.0","version":"2.0"},"bufferViews":[{"buffer":0,"byteLength":4,"byteOffset":0},{"buffer":0,"byteLength":12300,"byteOffset":4,"target":34963},{"buffer":0,"byteLength":49920,"byteOffset":12304,"target":34962},{"buffer":0,"byteLength":49920,"byteOffset":62224,"target":34962},{"buffer":0,"byteLength":66560,"byteOffset":112144,"target":34962},{"buffer":0,"byteLength":33280,"byteOffset":178704,"target":34962},{"buffer":0,"byteLength":33280,"byteOffset":211984,"target":34962}],"buffers":[{"byteLength":245264,"uri":"SM_Keyboard.bin"}],"images":[{"name":"TX_Keyboard_N","uri":"TX_Keyboard_N.tga"},{"name":"TX_Keyboard_D","uri":"TX_Keyboard_D.tga"}],"materials":[{"alphaMode":"OPAQUE","doubleSided":false,"extras":{"fromFBX":{"isTruePBR":false,"shadingModel":"Phong"}},"name":"M_Keyboard","normalTexture":{"index":0,"texCoord":0},"pbrMetallicRoughness":{"baseColorFactor":[1,1,1,1],"baseColorTexture":{"index":1,"texCoord":0},"metallicFactor":0.400000005960464,"roughnessFactor":0.301511347293854}}],"meshes":[{"name":"SM_Keyboard","primitives":[{"attributes":{"NORMAL":3,"POSITION":2,"TANGENT":4,"TEXCOORD_0":5,"TEXCOORD_1":6},"indices":1,"material":0,"mode":4}]}],"nodes":[{"mesh":0,"name":"SM_Keyboard","originalUnits":0.00999999977648258,"pivot":[0,0,0],"rotation":[-0.70710676908493,-0,0,0.70710676908493],"scale":[1,1,1],"translation":[0,0,0]}],"samplers":[{}],"scene":0,"scenes":[{"name":"Root Scene","nodes":[0]}],"textures":[{"name":"EnvSamplerTex","sampler":0,"source":0},{"name":"EnvSamplerTex","sampler":0,"source":1}]}