{"accessors":[{"bufferView":0,"byteOffset":0,"componentType":5126,"count":1,"max":[0],"min":[0],"type":"SCALAR"},{"bufferView":1,"byteOffset":0,"componentType":5123,"count":864,"type":"SCALAR"},{"bufferView":2,"byteOffset":0,"componentType":5126,"count":296,"max":[-0.04844473302364,4.94177770614624,1.00638163089752],"min":[-1.18704724311829,0.0029147791210562,0.0159918554127216],"type":"VEC3"},{"bufferView":3,"byteOffset":0,"componentType":5126,"count":296,"type":"VEC3"},{"bufferView":4,"byteOffset":0,"componentType":5126,"count":296,"type":"VEC4"},{"bufferView":5,"byteOffset":0,"componentType":5126,"count":296,"type":"VEC2"},{"bufferView":6,"byteOffset":0,"componentType":5126,"count":296,"type":"VEC2"}],"animations":[{"channels":[],"name":"Unreal Take","samplers":[]}],"asset":{"generator":"FBX2glTF v0.13.0","version":"2.0"},"bufferViews":[{"buffer":0,"byteLength":4,"byteOffset":0},{"buffer":0,"byteLength":1728,"byteOffset":4,"target":34963},{"buffer":0,"byteLength":3552,"byteOffset":1732,"target":34962},{"buffer":0,"byteLength":3552,"byteOffset":5284,"target":34962},{"buffer":0,"byteLength":4736,"byteOffset":8836,"target":34962},{"buffer":0,"byteLength":2368,"byteOffset":13572,"target":34962},{"buffer":0,"byteLength":2368,"byteOffset":15940,"target":34962}],"buffers":[{"byteLength":18308,"uri":"SM_LargeTable_01.bin"}],"images":[{"name":"TX_LargeTable__N","uri":"TX_LargeTable__N.png"},{"name":"TX_LargeTable__D","uri":"TX_LargeTable__D.png"}],"materials":[{"alphaMode":"OPAQUE","doubleSided":false,"extras":{"fromFBX":{"isTruePBR":false,"shadingModel":"Phong"}},"name":"M_LargeTable1Base","normalTexture":{"index":0,"texCoord":0},"pbrMetallicRoughness":{"baseColorFactor":[1,1,1,1],"baseColorTexture":{"index":1,"texCoord":0},"metallicFactor":0.400000005960464,"roughnessFactor":0.301511347293854}}],"meshes":[{"name":"SM_LargeTable_01","primitives":[{"attributes":{"NORMAL":3,"POSITION":2,"TANGENT":4,"TEXCOORD_0":5,"TEXCOORD_1":6},"indices":1,"material":0,"mode":4}]}],"nodes":[{"mesh":0,"name":"SM_LargeTable_01","originalUnits":0.00999999977648258,"pivot":[0,0,0],"rotation":[-0.70710676908493,-0,0,0.70710676908493],"scale":[1,1,1],"translation":[0,0,0]}],"samplers":[{}],"scene":0,"scenes":[{"name":"Root Scene","nodes":[0]}],"textures":[{"name":"EnvSamplerTex","sampler":0,"source":0},{"name":"EnvSamplerTex","sampler":0,"source":1}]}