{"accessors":[{"bufferView":0,"byteOffset":0,"componentType":5126,"count":1,"max":[0],"min":[0],"type":"SCALAR"},{"bufferView":1,"byteOffset":0,"componentType":5123,"count":27744,"type":"SCALAR"},{"bufferView":2,"byteOffset":0,"componentType":5126,"count":4900,"max":[0.190317079424858,1.95316433906555,0.290560901165009],"min":[-3.87830138206482,-0.44170698523521,-2.89859771728516],"type":"VEC3"},{"bufferView":3,"byteOffset":0,"componentType":5126,"count":4900,"type":"VEC3"},{"bufferView":4,"byteOffset":0,"componentType":5126,"count":4900,"type":"VEC4"},{"bufferView":5,"byteOffset":0,"componentType":5126,"count":4900,"type":"VEC2"},{"bufferView":6,"byteOffset":0,"componentType":5126,"count":4900,"type":"VEC2"}],"animations":[{"channels":[],"name":"Unreal Take","samplers":[]}],"asset":{"generator":"FBX2glTF v0.13.0","version":"2.0"},"bufferViews":[{"buffer":0,"byteLength":4,"byteOffset":0},{"buffer":0,"byteLength":55488,"byteOffset":4,"target":34963},{"buffer":0,"byteLength":58800,"byteOffset":55492,"target":34962},{"buffer":0,"byteLength":58800,"byteOffset":114292,"target":34962},{"buffer":0,"byteLength":78400,"byteOffset":173092,"target":34962},{"buffer":0,"byteLength":39200,"byteOffset":251492,"target":34962},{"buffer":0,"byteLength":39200,"byteOffset":290692,"target":34962}],"buffers":[{"byteLength":329892,"uri":"SM_LampCloth.bin"}],"images":[{"name":"TX_LampCloth_D","uri":"TX_LampCloth_D.tga"}],"materials":[{"alphaMode":"OPAQUE","doubleSided":false,"extras":{"fromFBX":{"isTruePBR":false,"shadingModel":"Phong"}},"name":"M_TranspCurtainsLamp","pbrMetallicRoughness":{"baseColorFactor":[1,1,1,0],"baseColorTexture":{"index":0,"texCoord":0},"metallicFactor":0.400000005960464,"roughnessFactor":0.301511347293854}}],"meshes":[{"name":"SM_LampCloth","primitives":[{"attributes":{"NORMAL":3,"POSITION":2,"TANGENT":4,"TEXCOORD_0":5,"TEXCOORD_1":6},"indices":1,"material":0,"mode":4}]}],"nodes":[{"mesh":0,"name":"SM_LampCloth","originalUnits":0.00999999977648258,"pivot":[0,0,0],"rotation":[-0.70710676908493,-0,0,0.70710676908493],"scale":[1,1,1],"translation":[0,0,0]}],"samplers":[{}],"scene":0,"scenes":[{"name":"Root Scene","nodes":[0]}],"textures":[{"name":"EnvSamplerTex","sampler":0,"source":0}]}