{"accessors":[{"bufferView":0,"byteOffset":0,"componentType":5126,"count":1,"max":[0],"min":[0],"type":"SCALAR"},{"bufferView":1,"byteOffset":0,"componentType":5123,"count":7050,"type":"SCALAR"},{"bufferView":2,"byteOffset":0,"componentType":5126,"count":2036,"max":[1.18062222003937,0.0624191090464592,3.30644679069519],"min":[-1.08062219619751,-0.72909843921661,-0],"type":"VEC3"},{"bufferView":3,"byteOffset":0,"componentType":5126,"count":2036,"type":"VEC3"},{"bufferView":4,"byteOffset":0,"componentType":5126,"count":2036,"type":"VEC4"},{"bufferView":5,"byteOffset":0,"componentType":5126,"count":2036,"type":"VEC2"},{"bufferView":6,"byteOffset":0,"componentType":5126,"count":2036,"type":"VEC2"}],"animations":[{"channels":[],"name":"Unreal Take","samplers":[]}],"asset":{"generator":"FBX2glTF v0.13.0","version":"2.0"},"bufferViews":[{"buffer":0,"byteLength":4,"byteOffset":0},{"buffer":0,"byteLength":14100,"byteOffset":4,"target":34963},{"buffer":0,"byteLength":24432,"byteOffset":14104,"target":34962},{"buffer":0,"byteLength":24432,"byteOffset":38536,"target":34962},{"buffer":0,"byteLength":32576,"byteOffset":62968,"target":34962},{"buffer":0,"byteLength":16288,"byteOffset":95544,"target":34962},{"buffer":0,"byteLength":16288,"byteOffset":111832,"target":34962}],"buffers":[{"byteLength":128120,"uri":"SM_Monitor_Holder_01.bin"}],"materials":[{"alphaMode":"OPAQUE","doubleSided":false,"extras":{"fromFBX":{"isTruePBR":false,"shadingModel":"Phong"}},"name":"M_Metal2","pbrMetallicRoughness":{"baseColorFactor":[0,0,0,1],"metallicFactor":0.400000005960464,"roughnessFactor":0.301511347293854}}],"meshes":[{"name":"SM_Monitor_Holder_01","primitives":[{"attributes":{"NORMAL":3,"POSITION":2,"TANGENT":4,"TEXCOORD_0":5,"TEXCOORD_1":6},"indices":1,"material":0,"mode":4}]}],"nodes":[{"mesh":0,"name":"SM_Monitor_Holder_01","originalUnits":0.00999999977648258,"pivot":[0,0,0],"rotation":[-0.70710676908493,-0,0,0.70710676908493],"scale":[1,1,1],"translation":[0,0,0]}],"samplers":[{}],"scene":0,"scenes":[{"name":"Root Scene","nodes":[0]}]}