{"accessors":[{"bufferView":0,"byteOffset":0,"componentType":5126,"count":1,"max":[0],"min":[0],"type":"SCALAR"},{"bufferView":1,"byteOffset":0,"componentType":5123,"count":834,"type":"SCALAR"},{"bufferView":2,"byteOffset":0,"componentType":5126,"count":340,"max":[0.22865903377533,1.18192720413208,2.11613583564758],"min":[-0.05181770026684,0.00433855783194304,-0.00208189617842],"type":"VEC3"},{"bufferView":3,"byteOffset":0,"componentType":5126,"count":340,"type":"VEC3"},{"bufferView":4,"byteOffset":0,"componentType":5126,"count":340,"type":"VEC4"},{"bufferView":5,"byteOffset":0,"componentType":5126,"count":340,"type":"VEC2"},{"bufferView":6,"byteOffset":0,"componentType":5126,"count":340,"type":"VEC2"}],"animations":[{"channels":[],"name":"Unreal Take","samplers":[]}],"asset":{"generator":"FBX2glTF v0.13.0","version":"2.0"},"bufferViews":[{"buffer":0,"byteLength":4,"byteOffset":0},{"buffer":0,"byteLength":1668,"byteOffset":4,"target":34963},{"buffer":0,"byteLength":4080,"byteOffset":1672,"target":34962},{"buffer":0,"byteLength":4080,"byteOffset":5752,"target":34962},{"buffer":0,"byteLength":5440,"byteOffset":9832,"target":34962},{"buffer":0,"byteLength":2720,"byteOffset":15272,"target":34962},{"buffer":0,"byteLength":2720,"byteOffset":17992,"target":34962}],"buffers":[{"byteLength":20712,"uri":"SM_Muppi.bin"}],"images":[{"name":"TX_Muppi_N","uri":"TX_Muppi_N.png"},{"name":"TX_Mupp_D","uri":"TX_Mupp_D.png"}],"materials":[{"alphaMode":"OPAQUE","doubleSided":false,"extras":{"fromFBX":{"isTruePBR":false,"shadingModel":"Phong"}},"name":"M_Muppi","normalTexture":{"index":0,"texCoord":0},"pbrMetallicRoughness":{"baseColorFactor":[1,1,1,1],"baseColorTexture":{"index":1,"texCoord":0},"metallicFactor":0.400000005960464,"roughnessFactor":0.301511347293854}}],"meshes":[{"name":"SM_Muppi","primitives":[{"attributes":{"NORMAL":3,"POSITION":2,"TANGENT":4,"TEXCOORD_0":5,"TEXCOORD_1":6},"indices":1,"material":0,"mode":4}]}],"nodes":[{"mesh":0,"name":"SM_Muppi","originalUnits":0.00999999977648258,"pivot":[0,0,0],"rotation":[-0.70710676908493,-0,0,0.70710676908493],"scale":[1,1,1],"translation":[0,0,0]}],"samplers":[{}],"scene":0,"scenes":[{"name":"Root Scene","nodes":[0]}],"textures":[{"name":"EnvSamplerTex","sampler":0,"source":0},{"name":"EnvSamplerTex","sampler":0,"source":1}]}