{"accessors":[{"bufferView":0,"byteOffset":0,"componentType":5126,"count":1,"max":[0],"min":[0],"type":"SCALAR"},{"bufferView":1,"byteOffset":0,"componentType":5123,"count":2724,"type":"SCALAR"},{"bufferView":2,"byteOffset":0,"componentType":5126,"count":1472,"max":[3.89793944358826,0.156010895967484,3.35184693336487],"min":[-0.03945621103048,-1.8129768371582,0.0481529235839844],"type":"VEC3"},{"bufferView":3,"byteOffset":0,"componentType":5126,"count":1472,"type":"VEC3"},{"bufferView":4,"byteOffset":0,"componentType":5126,"count":1472,"type":"VEC4"},{"bufferView":5,"byteOffset":0,"componentType":5126,"count":1472,"type":"VEC2"},{"bufferView":6,"byteOffset":0,"componentType":5126,"count":1472,"type":"VEC2"}],"animations":[{"channels":[],"name":"Unreal Take","samplers":[]}],"asset":{"generator":"FBX2glTF v0.13.0","version":"2.0"},"bufferViews":[{"buffer":0,"byteLength":4,"byteOffset":0},{"buffer":0,"byteLength":5448,"byteOffset":4,"target":34963},{"buffer":0,"byteLength":17664,"byteOffset":5452,"target":34962},{"buffer":0,"byteLength":17664,"byteOffset":23116,"target":34962},{"buffer":0,"byteLength":23552,"byteOffset":40780,"target":34962},{"buffer":0,"byteLength":11776,"byteOffset":64332,"target":34962},{"buffer":0,"byteLength":11776,"byteOffset":76108,"target":34962}],"buffers":[{"byteLength":87884,"uri":"SM_MainDoor.bin"}],"images":[{"name":"TX_MainDoor_N","uri":"TX_MainDoor_N.tga"},{"name":"TX_MainDoor_D","uri":"TX_MainDoor_D.tga"}],"materials":[{"alphaMode":"OPAQUE","doubleSided":false,"extras":{"fromFBX":{"isTruePBR":false,"shadingModel":"Phong"}},"name":"M_MainDoor","normalTexture":{"index":0,"texCoord":0},"pbrMetallicRoughness":{"baseColorFactor":[1,1,1,1],"baseColorTexture":{"index":1,"texCoord":0},"metallicFactor":0.400000005960464,"roughnessFactor":0.301511347293854}}],"meshes":[{"name":"SM_MainDoor","primitives":[{"attributes":{"NORMAL":3,"POSITION":2,"TANGENT":4,"TEXCOORD_0":5,"TEXCOORD_1":6},"indices":1,"material":0,"mode":4}]}],"nodes":[{"mesh":0,"name":"SM_MainDoor","originalUnits":0.00999999977648258,"pivot":[0,0,0],"rotation":[-0.70710676908493,-0,0,0.70710676908493],"scale":[1,1,1],"translation":[0,0,0]}],"samplers":[{}],"scene":0,"scenes":[{"name":"Root Scene","nodes":[0]}],"textures":[{"name":"EnvSamplerTex","sampler":0,"source":0},{"name":"EnvSamplerTex","sampler":0,"source":1}]}