{"accessors":[{"bufferView":0,"byteOffset":0,"componentType":5126,"count":1,"max":[0],"min":[0],"type":"SCALAR"},{"bufferView":1,"byteOffset":0,"componentType":5123,"count":190080,"type":"SCALAR"},{"bufferView":2,"byteOffset":0,"componentType":5126,"count":39204,"max":[12.1713275909424,1.67542779445648,5.96236085891724],"min":[-21.8422241210938,-14.0010986328125,1.24928951263428],"type":"VEC3"},{"bufferView":3,"byteOffset":0,"componentType":5126,"count":39204,"type":"VEC3"},{"bufferView":4,"byteOffset":0,"componentType":5126,"count":39204,"type":"VEC4"},{"bufferView":5,"byteOffset":0,"componentType":5126,"count":39204,"type":"VEC2"},{"bufferView":6,"byteOffset":0,"componentType":5126,"count":39204,"type":"VEC2"},{"bufferView":7,"byteOffset":0,"componentType":5123,"count":43200,"type":"SCALAR"},{"bufferView":8,"byteOffset":0,"componentType":5126,"count":9240,"max":[3.22042798995972,-1.79503965377808,5.47988891601562],"min":[-11.5648984909058,-13.9769020080566,1.27007961273193],"type":"VEC3"},{"bufferView":9,"byteOffset":0,"componentType":5126,"count":9240,"type":"VEC3"},{"bufferView":10,"byteOffset":0,"componentType":5126,"count":9240,"type":"VEC4"},{"bufferView":11,"byteOffset":0,"componentType":5126,"count":9240,"type":"VEC2"},{"bufferView":12,"byteOffset":0,"componentType":5126,"count":9240,"type":"VEC2"}],"animations":[{"channels":[],"name":"Unreal Take","samplers":[]}],"asset":{"generator":"FBX2glTF v0.13.0","version":"2.0"},"bufferViews":[{"buffer":0,"byteLength":4,"byteOffset":0},{"buffer":0,"byteLength":380160,"byteOffset":4,"target":34963},{"buffer":0,"byteLength":470448,"byteOffset":380164,"target":34962},{"buffer":0,"byteLength":470448,"byteOffset":850612,"target":34962},{"buffer":0,"byteLength":627264,"byteOffset":1321060,"target":34962},{"buffer":0,"byteLength":313632,"byteOffset":1948324,"target":34962},{"buffer":0,"byteLength":313632,"byteOffset":2261956,"target":34962},{"buffer":0,"byteLength":86400,"byteOffset":2575588,"target":34963},{"buffer":0,"byteLength":110880,"byteOffset":2661988,"target":34962},{"buffer":0,"byteLength":110880,"byteOffset":2772868,"target":34962},{"buffer":0,"byteLength":147840,"byteOffset":2883748,"target":34962},{"buffer":0,"byteLength":73920,"byteOffset":3031588,"target":34962},{"buffer":0,"byteLength":73920,"byteOffset":3105508,"target":34962}],"buffers":[{"byteLength":3179428,"uri":"SM_Merged_Spline_Cables.bin"}],"images":[{"name":"T_RegularCable_N","uri":"T_RegularCable_N.png"}],"materials":[{"alphaMode":"OPAQUE","doubleSided":false,"extras":{"fromFBX":{"isTruePBR":false,"shadingModel":"Phong"}},"name":"M_Regular_Cable","normalTexture":{"index":0,"texCoord":0},"pbrMetallicRoughness":{"baseColorFactor":[0,0,0,1],"metallicFactor":0.400000005960464,"roughnessFactor":0.301511347293854}},{"alphaMode":"OPAQUE","doubleSided":false,"extras":{"fromFBX":{"isTruePBR":false,"shadingModel":"Phong"}},"name":"M_TwistedCables","pbrMetallicRoughness":{"baseColorFactor":[0,0.0286979991942644,0.09375,1],"metallicFactor":0.400000005960464,"roughnessFactor":0.301511347293854}}],"meshes":[{"name":"SM_MERGED_Spline_cables51","primitives":[{"attributes":{"NORMAL":3,"POSITION":2,"TANGENT":4,"TEXCOORD_0":5,"TEXCOORD_1":6},"indices":1,"material":0,"mode":4},{"attributes":{"NORMAL":9,"POSITION":8,"TANGENT":10,"TEXCOORD_0":11,"TEXCOORD_1":12},"indices":7,"material":1,"mode":4}]}],"nodes":[{"mesh":0,"name":"SM_MERGED_Spline_cables51","originalUnits":0.00999999977648258,"pivot":[0,0,0],"rotation":[-0.70710676908493,-0,0,0.70710676908493],"scale":[1,1,1],"translation":[0,0,0]}],"samplers":[{}],"scene":0,"scenes":[{"name":"Root Scene","nodes":[0]}],"textures":[{"name":"EnvSamplerTex","sampler":0,"source":0}]}