{"accessors":[{"bufferView":0,"byteOffset":0,"componentType":5126,"count":1,"max":[0],"min":[0],"type":"SCALAR"},{"bufferView":1,"byteOffset":0,"componentType":5123,"count":3072,"type":"SCALAR"},{"bufferView":2,"byteOffset":0,"componentType":5126,"count":289,"max":[4.59999990463257,0.00000000837986657842293,0.0000000000000167377013805944],"min":[-0.00000004953214,-3.89999985694885,-0.0000078667199],"type":"VEC3"},{"bufferView":3,"byteOffset":0,"componentType":5126,"count":289,"type":"VEC3"},{"bufferView":4,"byteOffset":0,"componentType":5126,"count":289,"type":"VEC4"},{"bufferView":5,"byteOffset":0,"componentType":5126,"count":289,"type":"VEC2"},{"bufferView":6,"byteOffset":0,"componentType":5126,"count":289,"type":"VEC2"}],"animations":[{"channels":[],"name":"Unreal Take","samplers":[]}],"asset":{"generator":"FBX2glTF v0.13.0","version":"2.0"},"bufferViews":[{"buffer":0,"byteLength":4,"byteOffset":0},{"buffer":0,"byteLength":6144,"byteOffset":4,"target":34963},{"buffer":0,"byteLength":3468,"byteOffset":6148,"target":34962},{"buffer":0,"byteLength":3468,"byteOffset":9616,"target":34962},{"buffer":0,"byteLength":4624,"byteOffset":13084,"target":34962},{"buffer":0,"byteLength":2312,"byteOffset":17708,"target":34962},{"buffer":0,"byteLength":2312,"byteOffset":20020,"target":34962}],"buffers":[{"byteLength":22332,"uri":"SM_Mfloor.bin"}],"materials":[{"alphaMode":"OPAQUE","doubleSided":false,"extras":{"fromFBX":{"isTruePBR":false,"shadingModel":"Phong"}},"name":"M_Metal2","pbrMetallicRoughness":{"baseColorFactor":[0,0,0,1],"metallicFactor":0.400000005960464,"roughnessFactor":0.301511347293854}}],"meshes":[{"name":"SM_Mfloor","primitives":[{"attributes":{"NORMAL":3,"POSITION":2,"TANGENT":4,"TEXCOORD_0":5,"TEXCOORD_1":6},"indices":1,"material":0,"mode":4}]}],"nodes":[{"mesh":0,"name":"SM_Mfloor","originalUnits":0.00999999977648258,"pivot":[0,0,0],"rotation":[-0.70710676908493,-0,0,0.70710676908493],"scale":[1,1,1],"translation":[0,0,0]}],"samplers":[{}],"scene":0,"scenes":[{"name":"Root Scene","nodes":[0]}]}