{"accessors":[{"bufferView":0,"byteOffset":0,"componentType":5126,"count":1,"max":[0],"min":[0],"type":"SCALAR"},{"bufferView":1,"byteOffset":0,"componentType":5123,"count":1080,"type":"SCALAR"},{"bufferView":2,"byteOffset":0,"componentType":5126,"count":310,"max":[0.273066997528076,-0.00209405529313,0.0841376110911369],"min":[-0.00482317619026,-0.15677185356617,0.00117787602357566],"type":"VEC3"},{"bufferView":3,"byteOffset":0,"componentType":5126,"count":310,"type":"VEC3"},{"bufferView":4,"byteOffset":0,"componentType":5126,"count":310,"type":"VEC4"},{"bufferView":5,"byteOffset":0,"componentType":5126,"count":310,"type":"VEC2"},{"bufferView":6,"byteOffset":0,"componentType":5126,"count":310,"type":"VEC2"}],"animations":[{"channels":[],"name":"Unreal Take","samplers":[]}],"asset":{"generator":"FBX2glTF v0.13.0","version":"2.0"},"bufferViews":[{"buffer":0,"byteLength":4,"byteOffset":0},{"buffer":0,"byteLength":2160,"byteOffset":4,"target":34963},{"buffer":0,"byteLength":3720,"byteOffset":2164,"target":34962},{"buffer":0,"byteLength":3720,"byteOffset":5884,"target":34962},{"buffer":0,"byteLength":4960,"byteOffset":9604,"target":34962},{"buffer":0,"byteLength":2480,"byteOffset":14564,"target":34962},{"buffer":0,"byteLength":2480,"byteOffset":17044,"target":34962}],"buffers":[{"byteLength":19524,"uri":"SM_Mouse.bin"}],"images":[{"name":"TX_Mouse_N","uri":"TX_Mouse_N.tga"},{"name":"TX_Mouse_D","uri":"TX_Mouse_D.tga"}],"materials":[{"alphaMode":"OPAQUE","doubleSided":false,"extras":{"fromFBX":{"isTruePBR":false,"shadingModel":"Phong"}},"name":"M_Mouse","normalTexture":{"index":0,"texCoord":0},"pbrMetallicRoughness":{"baseColorFactor":[1,1,1,1],"baseColorTexture":{"index":1,"texCoord":0},"metallicFactor":0.400000005960464,"roughnessFactor":0.301511347293854}}],"meshes":[{"name":"SM_Mouse","primitives":[{"attributes":{"NORMAL":3,"POSITION":2,"TANGENT":4,"TEXCOORD_0":5,"TEXCOORD_1":6},"indices":1,"material":0,"mode":4}]}],"nodes":[{"mesh":0,"name":"SM_Mouse","originalUnits":0.00999999977648258,"pivot":[0,0,0],"rotation":[-0.70710676908493,-0,0,0.70710676908493],"scale":[1,1,1],"translation":[0,0,0]}],"samplers":[{}],"scene":0,"scenes":[{"name":"Root Scene","nodes":[0]}],"textures":[{"name":"EnvSamplerTex","sampler":0,"source":0},{"name":"EnvSamplerTex","sampler":0,"source":1}]}