{"accessors":[{"bufferView":0,"byteOffset":0,"componentType":5126,"count":1,"max":[0],"min":[0],"type":"SCALAR"},{"bufferView":1,"byteOffset":0,"componentType":5123,"count":84,"type":"SCALAR"},{"bufferView":2,"byteOffset":0,"componentType":5126,"count":40,"max":[0.599419057369232,-0.00000001354853,3.99995756149292],"min":[0.00058089167578145,-0.59883809089661,0.00058904883917421],"type":"VEC3"},{"bufferView":3,"byteOffset":0,"componentType":5126,"count":40,"type":"VEC3"},{"bufferView":4,"byteOffset":0,"componentType":5126,"count":40,"type":"VEC4"},{"bufferView":5,"byteOffset":0,"componentType":5126,"count":40,"type":"VEC2"},{"bufferView":6,"byteOffset":0,"componentType":5126,"count":40,"type":"VEC2"}],"animations":[{"channels":[],"name":"Unreal Take","samplers":[]}],"asset":{"generator":"FBX2glTF v0.13.0","version":"2.0"},"bufferViews":[{"buffer":0,"byteLength":4,"byteOffset":0},{"buffer":0,"byteLength":168,"byteOffset":4,"target":34963},{"buffer":0,"byteLength":480,"byteOffset":172,"target":34962},{"buffer":0,"byteLength":480,"byteOffset":652,"target":34962},{"buffer":0,"byteLength":640,"byteOffset":1132,"target":34962},{"buffer":0,"byteLength":320,"byteOffset":1772,"target":34962},{"buffer":0,"byteLength":320,"byteOffset":2092,"target":34962}],"buffers":[{"byteLength":2412,"uri":"SM_MetallicPillar_03.bin"}],"materials":[{"alphaMode":"OPAQUE","doubleSided":false,"extras":{"fromFBX":{"isTruePBR":false,"shadingModel":"Phong"}},"name":"M_Metal2","pbrMetallicRoughness":{"baseColorFactor":[0,0,0,1],"metallicFactor":0.400000005960464,"roughnessFactor":0.301511347293854}}],"meshes":[{"name":"SM_MetallicPillar_03","primitives":[{"attributes":{"NORMAL":3,"POSITION":2,"TANGENT":4,"TEXCOORD_0":5,"TEXCOORD_1":6},"indices":1,"material":0,"mode":4}]}],"nodes":[{"mesh":0,"name":"SM_MetallicPillar_03","originalUnits":0.00999999977648258,"pivot":[0,0,0],"rotation":[-0.70710676908493,-0,0,0.70710676908493],"scale":[1,1,1],"translation":[0,0,0]}],"samplers":[{}],"scene":0,"scenes":[{"name":"Root Scene","nodes":[0]}]}