{"accessors":[{"bufferView":0,"byteOffset":0,"componentType":5126,"count":1,"max":[0],"min":[0],"type":"SCALAR"},{"bufferView":1,"byteOffset":0,"componentType":5123,"count":3369,"type":"SCALAR"},{"bufferView":2,"byteOffset":0,"componentType":5126,"count":1469,"max":[-0.02378073148429,3.53409624099731,1.53546273708344],"min":[-3.50743389129639,0.0291330087929964,0.0371101908385754],"type":"VEC3"},{"bufferView":3,"byteOffset":0,"componentType":5126,"count":1469,"type":"VEC3"},{"bufferView":4,"byteOffset":0,"componentType":5126,"count":1469,"type":"VEC4"},{"bufferView":5,"byteOffset":0,"componentType":5126,"count":1469,"type":"VEC2"},{"bufferView":6,"byteOffset":0,"componentType":5126,"count":1469,"type":"VEC2"},{"bufferView":7,"byteOffset":0,"componentType":5123,"count":393,"type":"SCALAR"},{"bufferView":8,"byteOffset":0,"componentType":5126,"count":167,"max":[-0.05786275863647,3.49939560890198,0.741169512271881],"min":[-3.47335195541382,0.0395250432193279,0.0610389038920403],"type":"VEC3"},{"bufferView":9,"byteOffset":0,"componentType":5126,"count":167,"type":"VEC3"},{"bufferView":10,"byteOffset":0,"componentType":5126,"count":167,"type":"VEC4"},{"bufferView":11,"byteOffset":0,"componentType":5126,"count":167,"type":"VEC2"},{"bufferView":12,"byteOffset":0,"componentType":5126,"count":167,"type":"VEC2"}],"animations":[{"channels":[],"name":"Unreal Take","samplers":[]}],"asset":{"generator":"FBX2glTF v0.13.0","version":"2.0"},"bufferViews":[{"buffer":0,"byteLength":4,"byteOffset":0},{"buffer":0,"byteLength":6738,"byteOffset":4,"target":34963},{"buffer":0,"byteLength":17628,"byteOffset":6744,"target":34962},{"buffer":0,"byteLength":17628,"byteOffset":24372,"target":34962},{"buffer":0,"byteLength":23504,"byteOffset":42000,"target":34962},{"buffer":0,"byteLength":11752,"byteOffset":65504,"target":34962},{"buffer":0,"byteLength":11752,"byteOffset":77256,"target":34962},{"buffer":0,"byteLength":786,"byteOffset":89008,"target":34963},{"buffer":0,"byteLength":2004,"byteOffset":89796,"target":34962},{"buffer":0,"byteLength":2004,"byteOffset":91800,"target":34962},{"buffer":0,"byteLength":2672,"byteOffset":93804,"target":34962},{"buffer":0,"byteLength":1336,"byteOffset":96476,"target":34962},{"buffer":0,"byteLength":1336,"byteOffset":97812,"target":34962}],"buffers":[{"byteLength":99148,"uri":"SM_MainLamp.bin"}],"images":[{"name":"TX_Concrete_B","uri":"TX_Concrete_B.tga"},{"name":"TX_3MonitorsScreen_N","uri":"TX_3MonitorsScreen_N.tga"},{"name":"TX_3MonitorsScreen_D","uri":"TX_3MonitorsScreen_D.tga"}],"materials":[{"alphaMode":"OPAQUE","doubleSided":false,"extras":{"fromFBX":{"isTruePBR":false,"shadingModel":"Phong"}},"name":"M_Concrete","pbrMetallicRoughness":{"baseColorFactor":[1,1,1,1],"baseColorTexture":{"index":0,"texCoord":0},"metallicFactor":0.400000005960464,"roughnessFactor":0.301511347293854}},{"alphaMode":"OPAQUE","doubleSided":false,"extras":{"fromFBX":{"isTruePBR":false,"shadingModel":"Phong"}},"name":"M_TX_WhiteDirtLight","normalTexture":{"index":1,"texCoord":0},"pbrMetallicRoughness":{"baseColorFactor":[1,1,1,1],"baseColorTexture":{"index":2,"texCoord":0},"metallicFactor":0.400000005960464,"roughnessFactor":0.301511347293854}}],"meshes":[{"name":"SM_MainLamp","primitives":[{"attributes":{"NORMAL":3,"POSITION":2,"TANGENT":4,"TEXCOORD_0":5,"TEXCOORD_1":6},"indices":1,"material":0,"mode":4},{"attributes":{"NORMAL":9,"POSITION":8,"TANGENT":10,"TEXCOORD_0":11,"TEXCOORD_1":12},"indices":7,"material":1,"mode":4}]}],"nodes":[{"mesh":0,"name":"SM_MainLamp","originalUnits":0.00999999977648258,"pivot":[0,0,0],"rotation":[-0.70710676908493,-0,0,0.70710676908493],"scale":[1,1,1],"translation":[0,0,0]}],"samplers":[{}],"scene":0,"scenes":[{"name":"Root Scene","nodes":[0]}],"textures":[{"name":"EnvSamplerTex","sampler":0,"source":0},{"name":"EnvSamplerTex","sampler":0,"source":1},{"name":"EnvSamplerTex","sampler":0,"source":2}]}