{"accessors":[{"bufferView":0,"byteOffset":0,"componentType":5126,"count":1,"max":[0],"min":[0],"type":"SCALAR"},{"bufferView":1,"byteOffset":0,"componentType":5123,"count":2385,"type":"SCALAR"},{"bufferView":2,"byteOffset":0,"componentType":5126,"count":722,"max":[0.0873893871903419,0.0207607019692659,1.68884778022766],"min":[-0.26216879487038,-0.32348698377609,-0.02535119652748],"type":"VEC3"},{"bufferView":3,"byteOffset":0,"componentType":5126,"count":722,"type":"VEC3"},{"bufferView":4,"byteOffset":0,"componentType":5126,"count":722,"type":"VEC4"},{"bufferView":5,"byteOffset":0,"componentType":5126,"count":722,"type":"VEC2"},{"bufferView":6,"byteOffset":0,"componentType":5126,"count":722,"type":"VEC2"}],"animations":[{"channels":[],"name":"Unreal Take","samplers":[]}],"asset":{"generator":"FBX2glTF v0.13.0","version":"2.0"},"bufferViews":[{"buffer":0,"byteLength":4,"byteOffset":0},{"buffer":0,"byteLength":4770,"byteOffset":4,"target":34963},{"buffer":0,"byteLength":8664,"byteOffset":4776,"target":34962},{"buffer":0,"byteLength":8664,"byteOffset":13440,"target":34962},{"buffer":0,"byteLength":11552,"byteOffset":22104,"target":34962},{"buffer":0,"byteLength":5776,"byteOffset":33656,"target":34962},{"buffer":0,"byteLength":5776,"byteOffset":39432,"target":34962}],"buffers":[{"byteLength":45208,"uri":"SM_OxigenTankBlue.bin"}],"images":[{"name":"TX_OxigenTankBlue_N ","uri":"TX_OxigenTankBlue_N .tga"},{"name":"TX_OxigenTankBlue__D","uri":"TX_OxigenTankBlue__D.tga"}],"materials":[{"alphaMode":"OPAQUE","doubleSided":false,"extras":{"fromFBX":{"isTruePBR":false,"shadingModel":"Phong"}},"name":"M_OxigenTankBlue","normalTexture":{"index":0,"texCoord":0},"pbrMetallicRoughness":{"baseColorFactor":[1,1,1,1],"baseColorTexture":{"index":1,"texCoord":0},"metallicFactor":0.400000005960464,"roughnessFactor":0.301511347293854}}],"meshes":[{"name":"SM_OxigenTankBlue","primitives":[{"attributes":{"NORMAL":3,"POSITION":2,"TANGENT":4,"TEXCOORD_0":5,"TEXCOORD_1":6},"indices":1,"material":0,"mode":4}]}],"nodes":[{"mesh":0,"name":"SM_OxigenTankBlue","originalUnits":0.00999999977648258,"pivot":[0,0,0],"rotation":[-0.70710676908493,-0,0,0.70710676908493],"scale":[1,1,1],"translation":[0,0,0]}],"samplers":[{}],"scene":0,"scenes":[{"name":"Root Scene","nodes":[0]}],"textures":[{"name":"EnvSamplerTex","sampler":0,"source":0},{"name":"EnvSamplerTex","sampler":0,"source":1}]}