{"accessors":[{"bufferView":0,"byteOffset":0,"componentType":5126,"count":1,"max":[0],"min":[0],"type":"SCALAR"},{"bufferView":1,"byteOffset":0,"componentType":5123,"count":5658,"type":"SCALAR"},{"bufferView":2,"byteOffset":0,"componentType":5126,"count":3252,"max":[0.0203027315437794,-0.01139132212847,0.957518458366394],"min":[-0.57276844978332,-1.02470934391022,-0.00026381161297],"type":"VEC3"},{"bufferView":3,"byteOffset":0,"componentType":5126,"count":3252,"type":"VEC3"},{"bufferView":4,"byteOffset":0,"componentType":5126,"count":3252,"type":"VEC4"},{"bufferView":5,"byteOffset":0,"componentType":5126,"count":3252,"type":"VEC2"},{"bufferView":6,"byteOffset":0,"componentType":5126,"count":3252,"type":"VEC2"}],"animations":[{"channels":[],"name":"Unreal Take","samplers":[]}],"asset":{"generator":"FBX2glTF v0.13.0","version":"2.0"},"bufferViews":[{"buffer":0,"byteLength":4,"byteOffset":0},{"buffer":0,"byteLength":11316,"byteOffset":4,"target":34963},{"buffer":0,"byteLength":39024,"byteOffset":11320,"target":34962},{"buffer":0,"byteLength":39024,"byteOffset":50344,"target":34962},{"buffer":0,"byteLength":52032,"byteOffset":89368,"target":34962},{"buffer":0,"byteLength":26016,"byteOffset":141400,"target":34962},{"buffer":0,"byteLength":26016,"byteOffset":167416,"target":34962}],"buffers":[{"byteLength":193432,"uri":"SM_Pulleyf.bin"}],"images":[{"name":"TX_Pulley_N","uri":"TX_Pulley_N.tga"},{"name":"TX_Pulley_D","uri":"TX_Pulley_D.tga"}],"materials":[{"alphaMode":"OPAQUE","doubleSided":false,"extras":{"fromFBX":{"isTruePBR":false,"shadingModel":"Phong"}},"name":"M_Pulley","normalTexture":{"index":0,"texCoord":0},"pbrMetallicRoughness":{"baseColorFactor":[1,1,1,1],"baseColorTexture":{"index":1,"texCoord":0},"metallicFactor":0.400000005960464,"roughnessFactor":0.301511347293854}}],"meshes":[{"name":"SM_Pulleyf","primitives":[{"attributes":{"NORMAL":3,"POSITION":2,"TANGENT":4,"TEXCOORD_0":5,"TEXCOORD_1":6},"indices":1,"material":0,"mode":4}]}],"nodes":[{"mesh":0,"name":"SM_Pulleyf","originalUnits":0.00999999977648258,"pivot":[0,0,0],"rotation":[-0.70710676908493,-0,0,0.70710676908493],"scale":[1,1,1],"translation":[0,0,0]}],"samplers":[{}],"scene":0,"scenes":[{"name":"Root Scene","nodes":[0]}],"textures":[{"name":"EnvSamplerTex","sampler":0,"source":0},{"name":"EnvSamplerTex","sampler":0,"source":1}]}