{"accessors":[{"bufferView":0,"byteOffset":0,"componentType":5126,"count":1,"max":[0],"min":[0],"type":"SCALAR"},{"bufferView":1,"byteOffset":0,"componentType":5123,"count":732,"type":"SCALAR"},{"bufferView":2,"byteOffset":0,"componentType":5126,"count":257,"max":[0.0134912515059114,0.0184709895402193,0.428829044103622],"min":[-0.00977291446179,-0.00656947679818,-0.00530217122287],"type":"VEC3"},{"bufferView":3,"byteOffset":0,"componentType":5126,"count":257,"type":"VEC3"},{"bufferView":4,"byteOffset":0,"componentType":5126,"count":257,"type":"VEC4"},{"bufferView":5,"byteOffset":0,"componentType":5126,"count":257,"type":"VEC2"},{"bufferView":6,"byteOffset":0,"componentType":5126,"count":257,"type":"VEC2"}],"animations":[{"channels":[],"name":"Unreal Take","samplers":[]}],"asset":{"generator":"FBX2glTF v0.13.0","version":"2.0"},"bufferViews":[{"buffer":0,"byteLength":4,"byteOffset":0},{"buffer":0,"byteLength":1464,"byteOffset":4,"target":34963},{"buffer":0,"byteLength":3084,"byteOffset":1468,"target":34962},{"buffer":0,"byteLength":3084,"byteOffset":4552,"target":34962},{"buffer":0,"byteLength":4112,"byteOffset":7636,"target":34962},{"buffer":0,"byteLength":2056,"byteOffset":11748,"target":34962},{"buffer":0,"byteLength":2056,"byteOffset":13804,"target":34962}],"buffers":[{"byteLength":15860,"uri":"SM_pens_01.bin"}],"images":[{"name":"TX_Books_and_Pens_NRM","uri":"TX_Books_and_Pens_NRM.tga"},{"name":"TX_Books_and_Pens_ALB","uri":"TX_Books_and_Pens_ALB.tga"}],"materials":[{"alphaMode":"OPAQUE","doubleSided":false,"extras":{"fromFBX":{"isTruePBR":false,"shadingModel":"Phong"}},"name":"M_Books_and_Pens","normalTexture":{"index":0,"texCoord":0},"pbrMetallicRoughness":{"baseColorFactor":[1,1,1,1],"baseColorTexture":{"index":1,"texCoord":0},"metallicFactor":0.400000005960464,"roughnessFactor":0.301511347293854}}],"meshes":[{"name":"SM_pens_01","primitives":[{"attributes":{"NORMAL":3,"POSITION":2,"TANGENT":4,"TEXCOORD_0":5,"TEXCOORD_1":6},"indices":1,"material":0,"mode":4}]}],"nodes":[{"mesh":0,"name":"SM_pens_01","originalUnits":0.00999999977648258,"pivot":[0,0,0],"rotation":[-0.70710676908493,-0,0,0.70710676908493],"scale":[1,1,1],"translation":[0,0,0]}],"samplers":[{}],"scene":0,"scenes":[{"name":"Root Scene","nodes":[0]}],"textures":[{"name":"EnvSamplerTex","sampler":0,"source":0},{"name":"EnvSamplerTex","sampler":0,"source":1}]}