{"accessors":[{"bufferView":0,"byteOffset":0,"componentType":5126,"count":1,"max":[0],"min":[0],"type":"SCALAR"},{"bufferView":1,"byteOffset":0,"componentType":5123,"count":21,"type":"SCALAR"},{"bufferView":2,"byteOffset":0,"componentType":5126,"count":9,"max":[0.444257259368896,0.597540676593781,0.0000000936135720053244],"min":[-0.58622527122498,-0.57459598779678,-0.00000009735173],"type":"VEC3"},{"bufferView":3,"byteOffset":0,"componentType":5126,"count":9,"type":"VEC3"},{"bufferView":4,"byteOffset":0,"componentType":5126,"count":9,"type":"VEC4"},{"bufferView":5,"byteOffset":0,"componentType":5126,"count":9,"type":"VEC2"},{"bufferView":6,"byteOffset":0,"componentType":5126,"count":9,"type":"VEC2"}],"animations":[{"channels":[],"name":"Unreal Take","samplers":[]}],"asset":{"generator":"FBX2glTF v0.13.0","version":"2.0"},"bufferViews":[{"buffer":0,"byteLength":4,"byteOffset":0},{"buffer":0,"byteLength":42,"byteOffset":4,"target":34963},{"buffer":0,"byteLength":108,"byteOffset":48,"target":34962},{"buffer":0,"byteLength":108,"byteOffset":156,"target":34962},{"buffer":0,"byteLength":144,"byteOffset":264,"target":34962},{"buffer":0,"byteLength":72,"byteOffset":408,"target":34962},{"buffer":0,"byteLength":72,"byteOffset":480,"target":34962}],"buffers":[{"byteLength":552,"uri":"SM_Paper_Pile_06.bin"}],"images":[{"name":"TX_Paper_NRM","uri":"TX_Paper_NRM.tga"},{"name":"TX_Paper_ALB","uri":"TX_Paper_ALB.tga"}],"materials":[{"alphaMode":"OPAQUE","doubleSided":false,"extras":{"fromFBX":{"isTruePBR":false,"shadingModel":"Phong"}},"name":"M_Paper","normalTexture":{"index":0,"texCoord":0},"pbrMetallicRoughness":{"baseColorFactor":[1,1,1,1],"baseColorTexture":{"index":1,"texCoord":0},"metallicFactor":0.400000005960464,"roughnessFactor":0.301511347293854}}],"meshes":[{"name":"SM_Paper_Pile_06","primitives":[{"attributes":{"NORMAL":3,"POSITION":2,"TANGENT":4,"TEXCOORD_0":5,"TEXCOORD_1":6},"indices":1,"material":0,"mode":4}]}],"nodes":[{"mesh":0,"name":"SM_Paper_Pile_06","originalUnits":0.00999999977648258,"pivot":[0,0,0],"rotation":[-0.70710676908493,-0,0,0.70710676908493],"scale":[1,1,1],"translation":[0,0,0]}],"samplers":[{}],"scene":0,"scenes":[{"name":"Root Scene","nodes":[0]}],"textures":[{"name":"EnvSamplerTex","sampler":0,"source":0},{"name":"EnvSamplerTex","sampler":0,"source":1}]}