{"accessors":[{"bufferView":0,"byteOffset":0,"componentType":5126,"count":1,"max":[0],"min":[0],"type":"SCALAR"},{"bufferView":1,"byteOffset":0,"componentType":5123,"count":18579,"type":"SCALAR"},{"bufferView":2,"byteOffset":0,"componentType":5126,"count":3441,"max":[0.0709914788603783,2.16309356689453,0.0621388293802738],"min":[-1.48505020141602,0.00403137924149632,-0.03182894736528],"type":"VEC3"},{"bufferView":3,"byteOffset":0,"componentType":5126,"count":3441,"type":"VEC3"},{"bufferView":4,"byteOffset":0,"componentType":5126,"count":3441,"type":"VEC4"},{"bufferView":5,"byteOffset":0,"componentType":5126,"count":3441,"type":"VEC2"},{"bufferView":6,"byteOffset":0,"componentType":5126,"count":3441,"type":"VEC2"}],"animations":[{"channels":[],"name":"Unreal Take","samplers":[]}],"asset":{"generator":"FBX2glTF v0.13.0","version":"2.0"},"bufferViews":[{"buffer":0,"byteLength":4,"byteOffset":0},{"buffer":0,"byteLength":37158,"byteOffset":4,"target":34963},{"buffer":0,"byteLength":41292,"byteOffset":37164,"target":34962},{"buffer":0,"byteLength":41292,"byteOffset":78456,"target":34962},{"buffer":0,"byteLength":55056,"byteOffset":119748,"target":34962},{"buffer":0,"byteLength":27528,"byteOffset":174804,"target":34962},{"buffer":0,"byteLength":27528,"byteOffset":202332,"target":34962}],"buffers":[{"byteLength":229860,"uri":"SM_PlaneBox.bin"}],"images":[{"name":"TX_PlaneBox_N","uri":"TX_PlaneBox_N.png"},{"name":"TX_PlaneBox_D","uri":"TX_PlaneBox_D.png"}],"materials":[{"alphaMode":"OPAQUE","doubleSided":false,"extras":{"fromFBX":{"isTruePBR":false,"shadingModel":"Phong"}},"name":"M_PlaneBox","normalTexture":{"index":0,"texCoord":0},"pbrMetallicRoughness":{"baseColorFactor":[1,1,1,1],"baseColorTexture":{"index":1,"texCoord":0},"metallicFactor":0.400000005960464,"roughnessFactor":0.301511347293854}}],"meshes":[{"name":"SM_PlaneBox","primitives":[{"attributes":{"NORMAL":3,"POSITION":2,"TANGENT":4,"TEXCOORD_0":5,"TEXCOORD_1":6},"indices":1,"material":0,"mode":4}]}],"nodes":[{"mesh":0,"name":"SM_PlaneBox","originalUnits":0.00999999977648258,"pivot":[0,0,0],"rotation":[-0.70710676908493,-0,0,0.70710676908493],"scale":[1,1,1],"translation":[0,0,0]}],"samplers":[{}],"scene":0,"scenes":[{"name":"Root Scene","nodes":[0]}],"textures":[{"name":"EnvSamplerTex","sampler":0,"source":0},{"name":"EnvSamplerTex","sampler":0,"source":1}]}