{"accessors":[{"bufferView":0,"byteOffset":0,"componentType":5126,"count":1,"max":[0],"min":[0],"type":"SCALAR"},{"bufferView":1,"byteOffset":0,"componentType":5123,"count":11712,"type":"SCALAR"},{"bufferView":2,"byteOffset":0,"componentType":5126,"count":2936,"max":[0.854786455631256,1.3462598323822,1.12507009506226],"min":[-0.08809512108564,-0.10107970237732,0.00343822385184467],"type":"VEC3"},{"bufferView":3,"byteOffset":0,"componentType":5126,"count":2936,"type":"VEC3"},{"bufferView":4,"byteOffset":0,"componentType":5126,"count":2936,"type":"VEC4"},{"bufferView":5,"byteOffset":0,"componentType":5126,"count":2936,"type":"VEC2"},{"bufferView":6,"byteOffset":0,"componentType":5126,"count":2936,"type":"VEC2"}],"animations":[{"channels":[],"name":"Unreal Take","samplers":[]}],"asset":{"generator":"FBX2glTF v0.13.0","version":"2.0"},"bufferViews":[{"buffer":0,"byteLength":4,"byteOffset":0},{"buffer":0,"byteLength":23424,"byteOffset":4,"target":34963},{"buffer":0,"byteLength":35232,"byteOffset":23428,"target":34962},{"buffer":0,"byteLength":35232,"byteOffset":58660,"target":34962},{"buffer":0,"byteLength":46976,"byteOffset":93892,"target":34962},{"buffer":0,"byteLength":23488,"byteOffset":140868,"target":34962},{"buffer":0,"byteLength":23488,"byteOffset":164356,"target":34962}],"buffers":[{"byteLength":187844,"uri":"SM_PowerPoint.bin"}],"images":[{"name":"TX_PowerPoint_N","uri":"TX_PowerPoint_N.tga"},{"name":"TX_PowerPoint_D","uri":"TX_PowerPoint_D.tga"}],"materials":[{"alphaMode":"OPAQUE","doubleSided":false,"extras":{"fromFBX":{"isTruePBR":false,"shadingModel":"Phong"}},"name":"M_PowerPoint","normalTexture":{"index":0,"texCoord":0},"pbrMetallicRoughness":{"baseColorFactor":[1,1,1,1],"baseColorTexture":{"index":1,"texCoord":0},"metallicFactor":0.400000005960464,"roughnessFactor":0.301511347293854}}],"meshes":[{"name":"SM_PowerPoint","primitives":[{"attributes":{"NORMAL":3,"POSITION":2,"TANGENT":4,"TEXCOORD_0":5,"TEXCOORD_1":6},"indices":1,"material":0,"mode":4}]}],"nodes":[{"mesh":0,"name":"SM_PowerPoint","originalUnits":0.00999999977648258,"pivot":[0,0,0],"rotation":[-0.70710676908493,-0,0,0.70710676908493],"scale":[1,1,1],"translation":[0,0,0]}],"samplers":[{}],"scene":0,"scenes":[{"name":"Root Scene","nodes":[0]}],"textures":[{"name":"EnvSamplerTex","sampler":0,"source":0},{"name":"EnvSamplerTex","sampler":0,"source":1}]}