{"accessors":[{"bufferView":0,"byteOffset":0,"componentType":5126,"count":1,"max":[0],"min":[0],"type":"SCALAR"},{"bufferView":1,"byteOffset":0,"componentType":5123,"count":7359,"type":"SCALAR"},{"bufferView":2,"byteOffset":0,"componentType":5126,"count":1302,"max":[0.595259070396423,0.0131364036351442,0.0447231009602547],"min":[-0.09840517491102,-0.89244771003723,-0.56850349903107],"type":"VEC3"},{"bufferView":3,"byteOffset":0,"componentType":5126,"count":1302,"type":"VEC3"},{"bufferView":4,"byteOffset":0,"componentType":5126,"count":1302,"type":"VEC4"},{"bufferView":5,"byteOffset":0,"componentType":5126,"count":1302,"type":"VEC2"},{"bufferView":6,"byteOffset":0,"componentType":5126,"count":1302,"type":"VEC2"}],"animations":[{"channels":[],"name":"Unreal Take","samplers":[]}],"asset":{"generator":"FBX2glTF v0.13.0","version":"2.0"},"bufferViews":[{"buffer":0,"byteLength":4,"byteOffset":0},{"buffer":0,"byteLength":14718,"byteOffset":4,"target":34963},{"buffer":0,"byteLength":15624,"byteOffset":14724,"target":34962},{"buffer":0,"byteLength":15624,"byteOffset":30348,"target":34962},{"buffer":0,"byteLength":20832,"byteOffset":45972,"target":34962},{"buffer":0,"byteLength":10416,"byteOffset":66804,"target":34962},{"buffer":0,"byteLength":10416,"byteOffset":77220,"target":34962}],"buffers":[{"byteLength":87636,"uri":"SM_PulleyCloth.bin"}],"images":[{"name":"TX_PulleyCloth_N","uri":"TX_PulleyCloth_N.tga"},{"name":"TX_PulleyCloth_D","uri":"TX_PulleyCloth_D.tga"}],"materials":[{"alphaMode":"OPAQUE","doubleSided":false,"extras":{"fromFBX":{"isTruePBR":false,"shadingModel":"Phong"}},"name":"M_PulleyCloth","normalTexture":{"index":0,"texCoord":0},"pbrMetallicRoughness":{"baseColorFactor":[1,1,1,1],"baseColorTexture":{"index":1,"texCoord":0},"metallicFactor":0.400000005960464,"roughnessFactor":0.301511347293854}}],"meshes":[{"name":"SM_PulleyCloth","primitives":[{"attributes":{"NORMAL":3,"POSITION":2,"TANGENT":4,"TEXCOORD_0":5,"TEXCOORD_1":6},"indices":1,"material":0,"mode":4}]}],"nodes":[{"mesh":0,"name":"SM_PulleyCloth","originalUnits":0.00999999977648258,"pivot":[0,0,0],"rotation":[-0.70710676908493,-0,0,0.70710676908493],"scale":[1,1,1],"translation":[0,0,0]}],"samplers":[{}],"scene":0,"scenes":[{"name":"Root Scene","nodes":[0]}],"textures":[{"name":"EnvSamplerTex","sampler":0,"source":0},{"name":"EnvSamplerTex","sampler":0,"source":1}]}