{"accessors":[{"bufferView":0,"byteOffset":0,"componentType":5126,"count":1,"max":[0],"min":[0],"type":"SCALAR"},{"bufferView":1,"byteOffset":0,"componentType":5123,"count":180,"type":"SCALAR"},{"bufferView":2,"byteOffset":0,"componentType":5126,"count":55,"max":[0.00955435447394848,0.0169464945793152,0.396455228328705],"min":[-0.00914804451168,-0.00437288405374,-0.00007618601376],"type":"VEC3"},{"bufferView":3,"byteOffset":0,"componentType":5126,"count":55,"type":"VEC3"},{"bufferView":4,"byteOffset":0,"componentType":5126,"count":55,"type":"VEC4"},{"bufferView":5,"byteOffset":0,"componentType":5126,"count":55,"type":"VEC2"},{"bufferView":6,"byteOffset":0,"componentType":5126,"count":55,"type":"VEC2"}],"animations":[{"channels":[],"name":"Unreal Take","samplers":[]}],"asset":{"generator":"FBX2glTF v0.13.0","version":"2.0"},"bufferViews":[{"buffer":0,"byteLength":4,"byteOffset":0},{"buffer":0,"byteLength":360,"byteOffset":4,"target":34963},{"buffer":0,"byteLength":660,"byteOffset":364,"target":34962},{"buffer":0,"byteLength":660,"byteOffset":1024,"target":34962},{"buffer":0,"byteLength":880,"byteOffset":1684,"target":34962},{"buffer":0,"byteLength":440,"byteOffset":2564,"target":34962},{"buffer":0,"byteLength":440,"byteOffset":3004,"target":34962}],"buffers":[{"byteLength":3444,"uri":"SM_pens_03.bin"}],"images":[{"name":"TX_Books_and_Pens_NRM","uri":"TX_Books_and_Pens_NRM.tga"},{"name":"TX_Books_and_Pens_ALB","uri":"TX_Books_and_Pens_ALB.tga"}],"materials":[{"alphaMode":"OPAQUE","doubleSided":false,"extras":{"fromFBX":{"isTruePBR":false,"shadingModel":"Phong"}},"name":"M_Books_and_Pens","normalTexture":{"index":0,"texCoord":0},"pbrMetallicRoughness":{"baseColorFactor":[1,1,1,1],"baseColorTexture":{"index":1,"texCoord":0},"metallicFactor":0.400000005960464,"roughnessFactor":0.301511347293854}}],"meshes":[{"name":"SM_pens_03","primitives":[{"attributes":{"NORMAL":3,"POSITION":2,"TANGENT":4,"TEXCOORD_0":5,"TEXCOORD_1":6},"indices":1,"material":0,"mode":4}]}],"nodes":[{"mesh":0,"name":"SM_pens_03","originalUnits":0.00999999977648258,"pivot":[0,0,0],"rotation":[-0.70710676908493,-0,0,0.70710676908493],"scale":[1,1,1],"translation":[0,0,0]}],"samplers":[{}],"scene":0,"scenes":[{"name":"Root Scene","nodes":[0]}],"textures":[{"name":"EnvSamplerTex","sampler":0,"source":0},{"name":"EnvSamplerTex","sampler":0,"source":1}]}