{"accessors":[{"bufferView":0,"byteOffset":0,"componentType":5126,"count":1,"max":[0],"min":[0],"type":"SCALAR"},{"bufferView":1,"byteOffset":0,"componentType":5123,"count":1572,"type":"SCALAR"},{"bufferView":2,"byteOffset":0,"componentType":5126,"count":404,"max":[2.33338046073914,0.00969489943236113,1.27446627616882],"min":[-0.03338040038943,-0.84730499982834,0.00844450015574694],"type":"VEC3"},{"bufferView":3,"byteOffset":0,"componentType":5126,"count":404,"type":"VEC3"},{"bufferView":4,"byteOffset":0,"componentType":5126,"count":404,"type":"VEC4"},{"bufferView":5,"byteOffset":0,"componentType":5126,"count":404,"type":"VEC2"},{"bufferView":6,"byteOffset":0,"componentType":5126,"count":404,"type":"VEC2"}],"animations":[{"channels":[],"name":"Unreal Take","samplers":[]}],"asset":{"generator":"FBX2glTF v0.13.0","version":"2.0"},"bufferViews":[{"buffer":0,"byteLength":4,"byteOffset":0},{"buffer":0,"byteLength":3144,"byteOffset":4,"target":34963},{"buffer":0,"byteLength":4848,"byteOffset":3148,"target":34962},{"buffer":0,"byteLength":4848,"byteOffset":7996,"target":34962},{"buffer":0,"byteLength":6464,"byteOffset":12844,"target":34962},{"buffer":0,"byteLength":3232,"byteOffset":19308,"target":34962},{"buffer":0,"byteLength":3232,"byteOffset":22540,"target":34962}],"buffers":[{"byteLength":25772,"uri":"SM_PlasticChair.bin"}],"images":[{"name":"T_Sofa1_N","uri":"T_Sofa1_N.png"},{"name":"T_Sofa1_D","uri":"T_Sofa1_D.png"}],"materials":[{"alphaMode":"OPAQUE","doubleSided":false,"extras":{"fromFBX":{"isTruePBR":false,"shadingModel":"Phong"}},"name":"M_PlasticChair","normalTexture":{"index":0,"texCoord":0},"pbrMetallicRoughness":{"baseColorFactor":[1,1,1,1],"baseColorTexture":{"index":1,"texCoord":0},"metallicFactor":0.400000005960464,"roughnessFactor":0.301511347293854}}],"meshes":[{"name":"SM_PlasticChair","primitives":[{"attributes":{"NORMAL":3,"POSITION":2,"TANGENT":4,"TEXCOORD_0":5,"TEXCOORD_1":6},"indices":1,"material":0,"mode":4}]}],"nodes":[{"mesh":0,"name":"SM_PlasticChair","originalUnits":0.00999999977648258,"pivot":[0,0,0],"rotation":[-0.70710676908493,-0,0,0.70710676908493],"scale":[1,1,1],"translation":[0,0,0]}],"samplers":[{}],"scene":0,"scenes":[{"name":"Root Scene","nodes":[0]}],"textures":[{"name":"EnvSamplerTex","sampler":0,"source":0},{"name":"EnvSamplerTex","sampler":0,"source":1}]}