{"accessors":[{"bufferView":0,"byteOffset":0,"componentType":5126,"count":1,"max":[0],"min":[0],"type":"SCALAR"},{"bufferView":1,"byteOffset":0,"componentType":5123,"count":180,"type":"SCALAR"},{"bufferView":2,"byteOffset":0,"componentType":5126,"count":88,"max":[8,0,1.19999992847443],"min":[0,-15.7999992370605,-0],"type":"VEC3"},{"bufferView":3,"byteOffset":0,"componentType":5126,"count":88,"type":"VEC3"},{"bufferView":4,"byteOffset":0,"componentType":5126,"count":88,"type":"VEC4"},{"bufferView":5,"byteOffset":0,"componentType":5126,"count":88,"type":"VEC2"},{"bufferView":6,"byteOffset":0,"componentType":5126,"count":88,"type":"VEC2"}],"animations":[{"channels":[],"name":"Unreal Take","samplers":[]}],"asset":{"generator":"FBX2glTF v0.13.0","version":"2.0"},"bufferViews":[{"buffer":0,"byteLength":4,"byteOffset":0},{"buffer":0,"byteLength":360,"byteOffset":4,"target":34963},{"buffer":0,"byteLength":1056,"byteOffset":364,"target":34962},{"buffer":0,"byteLength":1056,"byteOffset":1420,"target":34962},{"buffer":0,"byteLength":1408,"byteOffset":2476,"target":34962},{"buffer":0,"byteLength":704,"byteOffset":3884,"target":34962},{"buffer":0,"byteLength":704,"byteOffset":4588,"target":34962}],"buffers":[{"byteLength":5292,"uri":"SM_Roof_02.bin"}],"images":[{"name":"TX_Roof_2_N","uri":"TX_Roof_2_N.tga"},{"name":"TX_Roof_2_B","uri":"TX_Roof_2_B.tga"}],"materials":[{"alphaMode":"OPAQUE","doubleSided":false,"extras":{"fromFBX":{"isTruePBR":false,"shadingModel":"Phong"}},"name":"M_Roof_02","normalTexture":{"index":0,"texCoord":0},"pbrMetallicRoughness":{"baseColorFactor":[1,1,1,1],"baseColorTexture":{"index":1,"texCoord":0},"metallicFactor":0.400000005960464,"roughnessFactor":0.301511347293854}}],"meshes":[{"name":"SM_Roof_02","primitives":[{"attributes":{"NORMAL":3,"POSITION":2,"TANGENT":4,"TEXCOORD_0":5,"TEXCOORD_1":6},"indices":1,"material":0,"mode":4}]}],"nodes":[{"mesh":0,"name":"SM_Roof_02","originalUnits":0.00999999977648258,"pivot":[0,0,0],"rotation":[-0.70710676908493,-0,0,0.70710676908493],"scale":[1,1,1],"translation":[0,0,0]}],"samplers":[{}],"scene":0,"scenes":[{"name":"Root Scene","nodes":[0]}],"textures":[{"name":"EnvSamplerTex","sampler":0,"source":0},{"name":"EnvSamplerTex","sampler":0,"source":1}]}