{"accessors":[{"bufferView":0,"byteOffset":0,"componentType":5126,"count":1,"max":[0],"min":[0],"type":"SCALAR"},{"bufferView":1,"byteOffset":0,"componentType":5123,"count":6138,"type":"SCALAR"},{"bufferView":2,"byteOffset":0,"componentType":5126,"count":1088,"max":[4.83652400970459,2.96709156036377,0.125221416354179],"min":[-0.13052543997765,0.0332934148609638,0.00900546927005053],"type":"VEC3"},{"bufferView":3,"byteOffset":0,"componentType":5126,"count":1088,"type":"VEC3"},{"bufferView":4,"byteOffset":0,"componentType":5126,"count":1088,"type":"VEC4"},{"bufferView":5,"byteOffset":0,"componentType":5126,"count":1088,"type":"VEC2"},{"bufferView":6,"byteOffset":0,"componentType":5126,"count":1088,"type":"VEC2"}],"animations":[{"channels":[],"name":"Unreal Take","samplers":[]}],"asset":{"generator":"FBX2glTF v0.13.0","version":"2.0"},"bufferViews":[{"buffer":0,"byteLength":4,"byteOffset":0},{"buffer":0,"byteLength":12276,"byteOffset":4,"target":34963},{"buffer":0,"byteLength":13056,"byteOffset":12280,"target":34962},{"buffer":0,"byteLength":13056,"byteOffset":25336,"target":34962},{"buffer":0,"byteLength":17408,"byteOffset":38392,"target":34962},{"buffer":0,"byteLength":8704,"byteOffset":55800,"target":34962},{"buffer":0,"byteLength":8704,"byteOffset":64504,"target":34962}],"buffers":[{"byteLength":73208,"uri":"SM_RectangularBlueCarpet.bin"}],"materials":[{"alphaMode":"OPAQUE","doubleSided":false,"extras":{"fromFBX":{"isTruePBR":false,"shadingModel":"Phong"}},"name":"M_RectangularBlueCarpet","pbrMetallicRoughness":{"baseColorFactor":[0,0.2379380017519,0.265625,1],"metallicFactor":0.400000005960464,"roughnessFactor":0.301511347293854}}],"meshes":[{"name":"SM_RectangularBlueCarpet","primitives":[{"attributes":{"NORMAL":3,"POSITION":2,"TANGENT":4,"TEXCOORD_0":5,"TEXCOORD_1":6},"indices":1,"material":0,"mode":4}]}],"nodes":[{"mesh":0,"name":"SM_RectangularBlueCarpet","originalUnits":0.00999999977648258,"pivot":[0,0,0],"rotation":[-0.70710676908493,-0,0,0.70710676908493],"scale":[1,1,1],"translation":[0,0,0]}],"samplers":[{}],"scene":0,"scenes":[{"name":"Root Scene","nodes":[0]}]}