{"accessors":[{"bufferView":0,"byteOffset":0,"componentType":5126,"count":1,"max":[0],"min":[0],"type":"SCALAR"},{"bufferView":1,"byteOffset":0,"componentType":5123,"count":108,"type":"SCALAR"},{"bufferView":2,"byteOffset":0,"componentType":5126,"count":54,"max":[4.79990816116333,3.80001354217529,0.039711132645607],"min":[0.0000471977982670069,-0.00062852381961,0.00053388503147289],"type":"VEC3"},{"bufferView":3,"byteOffset":0,"componentType":5126,"count":54,"type":"VEC3"},{"bufferView":4,"byteOffset":0,"componentType":5126,"count":54,"type":"VEC4"},{"bufferView":5,"byteOffset":0,"componentType":5126,"count":54,"type":"VEC2"},{"bufferView":6,"byteOffset":0,"componentType":5126,"count":54,"type":"VEC2"}],"animations":[{"channels":[],"name":"Unreal Take","samplers":[]}],"asset":{"generator":"FBX2glTF v0.13.0","version":"2.0"},"bufferViews":[{"buffer":0,"byteLength":4,"byteOffset":0},{"buffer":0,"byteLength":216,"byteOffset":4,"target":34963},{"buffer":0,"byteLength":648,"byteOffset":220,"target":34962},{"buffer":0,"byteLength":648,"byteOffset":868,"target":34962},{"buffer":0,"byteLength":864,"byteOffset":1516,"target":34962},{"buffer":0,"byteLength":432,"byteOffset":2380,"target":34962},{"buffer":0,"byteLength":432,"byteOffset":2812,"target":34962}],"buffers":[{"byteLength":3244,"uri":"SM_Roof1.bin"}],"images":[{"name":"TX_Roof1__N ","uri":"TX_Roof1__N .tga"},{"name":"TX_Roof1__D","uri":"TX_Roof1__D.tga"}],"materials":[{"alphaMode":"OPAQUE","doubleSided":false,"extras":{"fromFBX":{"isTruePBR":false,"shadingModel":"Phong"}},"name":"M_IntRoof1","normalTexture":{"index":0,"texCoord":0},"pbrMetallicRoughness":{"baseColorFactor":[1,1,1,1],"baseColorTexture":{"index":1,"texCoord":0},"metallicFactor":0.400000005960464,"roughnessFactor":0.301511347293854}}],"meshes":[{"name":"SM_Roof1","primitives":[{"attributes":{"NORMAL":3,"POSITION":2,"TANGENT":4,"TEXCOORD_0":5,"TEXCOORD_1":6},"indices":1,"material":0,"mode":4}]}],"nodes":[{"mesh":0,"name":"SM_Roof1","originalUnits":0.00999999977648258,"pivot":[0,0,0],"rotation":[-0.70710676908493,-0,0,0.70710676908493],"scale":[1,1,1],"translation":[0,0,0]}],"samplers":[{}],"scene":0,"scenes":[{"name":"Root Scene","nodes":[0]}],"textures":[{"name":"EnvSamplerTex","sampler":0,"source":0},{"name":"EnvSamplerTex","sampler":0,"source":1}]}