{"accessors":[{"bufferView":0,"byteOffset":0,"componentType":5126,"count":1,"max":[0],"min":[0],"type":"SCALAR"},{"bufferView":1,"byteOffset":0,"componentType":5123,"count":297,"type":"SCALAR"},{"bufferView":2,"byteOffset":0,"componentType":5126,"count":104,"max":[5.09670305252075,1.94921636581421,0.071502573788166],"min":[-0.04854061082006,-0.0322746373713,-0.0000007448607],"type":"VEC3"},{"bufferView":3,"byteOffset":0,"componentType":5126,"count":104,"type":"VEC3"},{"bufferView":4,"byteOffset":0,"componentType":5126,"count":104,"type":"VEC4"},{"bufferView":5,"byteOffset":0,"componentType":5126,"count":104,"type":"VEC2"},{"bufferView":6,"byteOffset":0,"componentType":5126,"count":104,"type":"VEC2"}],"animations":[{"channels":[],"name":"Unreal Take","samplers":[]}],"asset":{"generator":"FBX2glTF v0.13.0","version":"2.0"},"bufferViews":[{"buffer":0,"byteLength":4,"byteOffset":0},{"buffer":0,"byteLength":594,"byteOffset":4,"target":34963},{"buffer":0,"byteLength":1248,"byteOffset":600,"target":34962},{"buffer":0,"byteLength":1248,"byteOffset":1848,"target":34962},{"buffer":0,"byteLength":1664,"byteOffset":3096,"target":34962},{"buffer":0,"byteLength":832,"byteOffset":4760,"target":34962},{"buffer":0,"byteLength":832,"byteOffset":5592,"target":34962}],"buffers":[{"byteLength":6424,"uri":"SM_RectangularCarpet.bin"}],"images":[{"name":"TX_Carpets_NRM","uri":"TX_Carpets_NRM.png"},{"name":"TX_Carpets_ALB","uri":"TX_Carpets_ALB.png"}],"materials":[{"alphaMode":"OPAQUE","doubleSided":false,"extras":{"fromFBX":{"isTruePBR":false,"shadingModel":"Phong"}},"name":"M_RectangularCarpet","normalTexture":{"index":0,"texCoord":0},"pbrMetallicRoughness":{"baseColorFactor":[1,1,1,1],"baseColorTexture":{"index":1,"texCoord":0},"metallicFactor":0.400000005960464,"roughnessFactor":0.301511347293854}}],"meshes":[{"name":"SM_RectangularCarpet","primitives":[{"attributes":{"NORMAL":3,"POSITION":2,"TANGENT":4,"TEXCOORD_0":5,"TEXCOORD_1":6},"indices":1,"material":0,"mode":4}]}],"nodes":[{"mesh":0,"name":"SM_RectangularCarpet","originalUnits":0.00999999977648258,"pivot":[0,0,0],"rotation":[-0.70710676908493,-0,0,0.70710676908493],"scale":[1,1,1],"translation":[0,0,0]}],"samplers":[{}],"scene":0,"scenes":[{"name":"Root Scene","nodes":[0]}],"textures":[{"name":"EnvSamplerTex","sampler":0,"source":0},{"name":"EnvSamplerTex","sampler":0,"source":1}]}