{"accessors":[{"bufferView":0,"byteOffset":0,"componentType":5126,"count":1,"max":[0],"min":[0],"type":"SCALAR"},{"bufferView":1,"byteOffset":0,"componentType":5123,"count":480,"type":"SCALAR"},{"bufferView":2,"byteOffset":0,"componentType":5126,"count":99,"max":[0.75,0.00158934621140361,0.0775682479143143],"min":[0.00000000279751755094537,-0.07694294303656,-0.00096404238138],"type":"VEC3"},{"bufferView":3,"byteOffset":0,"componentType":5126,"count":99,"type":"VEC3"},{"bufferView":4,"byteOffset":0,"componentType":5126,"count":99,"type":"VEC4"},{"bufferView":5,"byteOffset":0,"componentType":5126,"count":99,"type":"VEC2"},{"bufferView":6,"byteOffset":0,"componentType":5126,"count":99,"type":"VEC2"}],"animations":[{"channels":[],"name":"Unreal Take","samplers":[]}],"asset":{"generator":"FBX2glTF v0.13.0","version":"2.0"},"bufferViews":[{"buffer":0,"byteLength":4,"byteOffset":0},{"buffer":0,"byteLength":960,"byteOffset":4,"target":34963},{"buffer":0,"byteLength":1188,"byteOffset":964,"target":34962},{"buffer":0,"byteLength":1188,"byteOffset":2152,"target":34962},{"buffer":0,"byteLength":1584,"byteOffset":3340,"target":34962},{"buffer":0,"byteLength":792,"byteOffset":4924,"target":34962},{"buffer":0,"byteLength":792,"byteOffset":5716,"target":34962}],"buffers":[{"byteLength":6508,"uri":"SM_Regular_Cable.bin"}],"images":[{"name":"T_RegularCable_N","uri":"T_RegularCable_N.png"}],"materials":[{"alphaMode":"OPAQUE","doubleSided":false,"extras":{"fromFBX":{"isTruePBR":false,"shadingModel":"Phong"}},"name":"M_Regular_Cable","normalTexture":{"index":0,"texCoord":0},"pbrMetallicRoughness":{"baseColorFactor":[0,0,0,1],"metallicFactor":0.400000005960464,"roughnessFactor":0.301511347293854}}],"meshes":[{"name":"SM_Regular_Cable","primitives":[{"attributes":{"NORMAL":3,"POSITION":2,"TANGENT":4,"TEXCOORD_0":5,"TEXCOORD_1":6},"indices":1,"material":0,"mode":4}]}],"nodes":[{"mesh":0,"name":"SM_Regular_Cable","originalUnits":0.00999999977648258,"pivot":[0,0,0],"rotation":[-0.70710676908493,-0,0,0.70710676908493],"scale":[1,1,1],"translation":[0,0,0]}],"samplers":[{}],"scene":0,"scenes":[{"name":"Root Scene","nodes":[0]}],"textures":[{"name":"EnvSamplerTex","sampler":0,"source":0}]}