{"accessors":[{"bufferView":0,"byteOffset":0,"componentType":5126,"count":1,"max":[0],"min":[0],"type":"SCALAR"},{"bufferView":1,"byteOffset":0,"componentType":5123,"count":582,"type":"SCALAR"},{"bufferView":2,"byteOffset":0,"componentType":5126,"count":312,"max":[0.311330139636993,0.211806118488312,2.28922748565674],"min":[-0.5688459277153,-0.66836994886398,0.00712791411206126],"type":"VEC3"},{"bufferView":3,"byteOffset":0,"componentType":5126,"count":312,"type":"VEC3"},{"bufferView":4,"byteOffset":0,"componentType":5126,"count":312,"type":"VEC4"},{"bufferView":5,"byteOffset":0,"componentType":5126,"count":312,"type":"VEC2"},{"bufferView":6,"byteOffset":0,"componentType":5126,"count":312,"type":"VEC2"}],"animations":[{"channels":[],"name":"Unreal Take","samplers":[]}],"asset":{"generator":"FBX2glTF v0.13.0","version":"2.0"},"bufferViews":[{"buffer":0,"byteLength":4,"byteOffset":0},{"buffer":0,"byteLength":1164,"byteOffset":4,"target":34963},{"buffer":0,"byteLength":3744,"byteOffset":1168,"target":34962},{"buffer":0,"byteLength":3744,"byteOffset":4912,"target":34962},{"buffer":0,"byteLength":4992,"byteOffset":8656,"target":34962},{"buffer":0,"byteLength":2496,"byteOffset":13648,"target":34962},{"buffer":0,"byteLength":2496,"byteOffset":16144,"target":34962}],"buffers":[{"byteLength":18640,"uri":"SM_RoofAssetServer.bin"}],"images":[{"name":"TX_RoofAssetServer_N","uri":"TX_RoofAssetServer_N.tga"},{"name":"TX_RoofAssetServer_EMM","uri":"TX_RoofAssetServer_EMM.tga"},{"name":"TX_RoofAssetServer_D","uri":"TX_RoofAssetServer_D.tga"}],"materials":[{"alphaMode":"OPAQUE","doubleSided":false,"emissiveFactor":[1,1,1],"emissiveTexture":{"index":1,"texCoord":0},"extras":{"fromFBX":{"isTruePBR":false,"shadingModel":"Phong"}},"name":"M_RoofAssetServer","normalTexture":{"index":0,"texCoord":0},"pbrMetallicRoughness":{"baseColorFactor":[1,1,1,1],"baseColorTexture":{"index":2,"texCoord":0},"metallicFactor":0.400000005960464,"roughnessFactor":0.301511347293854}}],"meshes":[{"name":"SM_RoofAssetServer","primitives":[{"attributes":{"NORMAL":3,"POSITION":2,"TANGENT":4,"TEXCOORD_0":5,"TEXCOORD_1":6},"indices":1,"material":0,"mode":4}]}],"nodes":[{"mesh":0,"name":"SM_RoofAssetServer","originalUnits":0.00999999977648258,"pivot":[0,0,0],"rotation":[-0.70710676908493,-0,0,0.70710676908493],"scale":[1,1,1],"translation":[0,0,0]}],"samplers":[{}],"scene":0,"scenes":[{"name":"Root Scene","nodes":[0]}],"textures":[{"name":"EnvSamplerTex","sampler":0,"source":0},{"name":"EnvSamplerTex","sampler":0,"source":1},{"name":"EnvSamplerTex","sampler":0,"source":2}]}