{"accessors":[{"bufferView":0,"byteOffset":0,"componentType":5126,"count":1,"max":[0],"min":[0],"type":"SCALAR"},{"bufferView":1,"byteOffset":0,"componentType":5123,"count":2496,"type":"SCALAR"},{"bufferView":2,"byteOffset":0,"componentType":5126,"count":954,"max":[-0.01572121493518,0.0239443574100733,2.26847553253174],"min":[-1.60205161571503,-0.49596506357193,-0.00000000964095],"type":"VEC3"},{"bufferView":3,"byteOffset":0,"componentType":5126,"count":954,"type":"VEC3"},{"bufferView":4,"byteOffset":0,"componentType":5126,"count":954,"type":"VEC4"},{"bufferView":5,"byteOffset":0,"componentType":5126,"count":954,"type":"VEC2"},{"bufferView":6,"byteOffset":0,"componentType":5126,"count":954,"type":"VEC2"}],"animations":[{"channels":[],"name":"Unreal Take","samplers":[]}],"asset":{"generator":"FBX2glTF v0.13.0","version":"2.0"},"bufferViews":[{"buffer":0,"byteLength":4,"byteOffset":0},{"buffer":0,"byteLength":4992,"byteOffset":4,"target":34963},{"buffer":0,"byteLength":11448,"byteOffset":4996,"target":34962},{"buffer":0,"byteLength":11448,"byteOffset":16444,"target":34962},{"buffer":0,"byteLength":15264,"byteOffset":27892,"target":34962},{"buffer":0,"byteLength":7632,"byteOffset":43156,"target":34962},{"buffer":0,"byteLength":7632,"byteOffset":50788,"target":34962}],"buffers":[{"byteLength":58420,"uri":"SM_Shelf.bin"}],"images":[{"name":"initialShadingGroup_Normal_OpenGL","uri":"initialShadingGroup_Normal_OpenGL.png"},{"name":"initialShadingGroup_Base_Color","uri":"initialShadingGroup_Base_Color.png"}],"materials":[{"alphaMode":"OPAQUE","doubleSided":false,"extras":{"fromFBX":{"isTruePBR":false,"shadingModel":"Phong"}},"name":"M_Shelf","normalTexture":{"index":0,"texCoord":0},"pbrMetallicRoughness":{"baseColorFactor":[1,1,1,1],"baseColorTexture":{"index":1,"texCoord":0},"metallicFactor":0.400000005960464,"roughnessFactor":0.301511347293854}}],"meshes":[{"name":"SM_Shelf","primitives":[{"attributes":{"NORMAL":3,"POSITION":2,"TANGENT":4,"TEXCOORD_0":5,"TEXCOORD_1":6},"indices":1,"material":0,"mode":4}]}],"nodes":[{"mesh":0,"name":"SM_Shelf","originalUnits":0.00999999977648258,"pivot":[0,0,0],"rotation":[-0.70710676908493,-0,0,0.70710676908493],"scale":[1,1,1],"translation":[0,0,0]}],"samplers":[{}],"scene":0,"scenes":[{"name":"Root Scene","nodes":[0]}],"textures":[{"name":"EnvSamplerTex","sampler":0,"source":0},{"name":"EnvSamplerTex","sampler":0,"source":1}]}