{"accessors":[{"bufferView":0,"byteOffset":0,"componentType":5126,"count":1,"max":[0],"min":[0],"type":"SCALAR"},{"bufferView":1,"byteOffset":0,"componentType":5123,"count":4008,"type":"SCALAR"},{"bufferView":2,"byteOffset":0,"componentType":5126,"count":2269,"max":[1.00378000736237,0.0548119992017746,0.309382975101471],"min":[-0.02070789970458,-0.42392697930336,-0.01743629947305],"type":"VEC3"},{"bufferView":3,"byteOffset":0,"componentType":5126,"count":2269,"type":"VEC3"},{"bufferView":4,"byteOffset":0,"componentType":5126,"count":2269,"type":"VEC4"},{"bufferView":5,"byteOffset":0,"componentType":5126,"count":2269,"type":"VEC2"},{"bufferView":6,"byteOffset":0,"componentType":5126,"count":2269,"type":"VEC2"}],"animations":[{"channels":[],"name":"Unreal Take","samplers":[]}],"asset":{"generator":"FBX2glTF v0.13.0","version":"2.0"},"bufferViews":[{"buffer":0,"byteLength":4,"byteOffset":0},{"buffer":0,"byteLength":8016,"byteOffset":4,"target":34963},{"buffer":0,"byteLength":27228,"byteOffset":8020,"target":34962},{"buffer":0,"byteLength":27228,"byteOffset":35248,"target":34962},{"buffer":0,"byteLength":36304,"byteOffset":62476,"target":34962},{"buffer":0,"byteLength":18152,"byteOffset":98780,"target":34962},{"buffer":0,"byteLength":18152,"byteOffset":116932,"target":34962}],"buffers":[{"byteLength":135084,"uri":"SM_StorageBoxF.bin"}],"images":[{"name":"TX_StorageBox_N ","uri":"TX_StorageBox_N .tga"},{"name":"TX_StorageBox__D","uri":"TX_StorageBox__D.tga"}],"materials":[{"alphaMode":"OPAQUE","doubleSided":false,"extras":{"fromFBX":{"isTruePBR":false,"shadingModel":"Phong"}},"name":"M_StorageBox","normalTexture":{"index":0,"texCoord":0},"pbrMetallicRoughness":{"baseColorFactor":[1,1,1,1],"baseColorTexture":{"index":1,"texCoord":0},"metallicFactor":0.400000005960464,"roughnessFactor":0.301511347293854}}],"meshes":[{"name":"SM_StorageBoxF","primitives":[{"attributes":{"NORMAL":3,"POSITION":2,"TANGENT":4,"TEXCOORD_0":5,"TEXCOORD_1":6},"indices":1,"material":0,"mode":4}]}],"nodes":[{"mesh":0,"name":"SM_StorageBoxF","originalUnits":0.00999999977648258,"pivot":[0,0,0],"rotation":[-0.70710676908493,-0,0,0.70710676908493],"scale":[1,1,1],"translation":[0,0,0]}],"samplers":[{}],"scene":0,"scenes":[{"name":"Root Scene","nodes":[0]}],"textures":[{"name":"EnvSamplerTex","sampler":0,"source":0},{"name":"EnvSamplerTex","sampler":0,"source":1}]}