{"accessors":[{"bufferView":0,"byteOffset":0,"componentType":5126,"count":1,"max":[0],"min":[0],"type":"SCALAR"},{"bufferView":1,"byteOffset":0,"componentType":5123,"count":12576,"type":"SCALAR"},{"bufferView":2,"byteOffset":0,"componentType":5126,"count":2902,"max":[0.659414947032928,0.786067962646484,1.51560997962952],"min":[-0.00156966992654,-0.00097736401949,-0.00227973982692],"type":"VEC3"},{"bufferView":3,"byteOffset":0,"componentType":5126,"count":2902,"type":"VEC3"},{"bufferView":4,"byteOffset":0,"componentType":5126,"count":2902,"type":"VEC4"},{"bufferView":5,"byteOffset":0,"componentType":5126,"count":2902,"type":"VEC2"},{"bufferView":6,"byteOffset":0,"componentType":5126,"count":2902,"type":"VEC2"}],"animations":[{"channels":[],"name":"Unreal Take","samplers":[]}],"asset":{"generator":"FBX2glTF v0.13.0","version":"2.0"},"bufferViews":[{"buffer":0,"byteLength":4,"byteOffset":0},{"buffer":0,"byteLength":25152,"byteOffset":4,"target":34963},{"buffer":0,"byteLength":34824,"byteOffset":25156,"target":34962},{"buffer":0,"byteLength":34824,"byteOffset":59980,"target":34962},{"buffer":0,"byteLength":46432,"byteOffset":94804,"target":34962},{"buffer":0,"byteLength":23216,"byteOffset":141236,"target":34962},{"buffer":0,"byteLength":23216,"byteOffset":164452,"target":34962}],"buffers":[{"byteLength":187668,"uri":"SM_Sstation.bin"}],"images":[{"name":"TX_Sstation_N","uri":"TX_Sstation_N.tga"},{"name":"TX_Sstation_D","uri":"TX_Sstation_D.tga"}],"materials":[{"alphaMode":"OPAQUE","doubleSided":false,"extras":{"fromFBX":{"isTruePBR":false,"shadingModel":"Phong"}},"name":"M_Sstation","normalTexture":{"index":0,"texCoord":0},"pbrMetallicRoughness":{"baseColorFactor":[1,1,1,1],"baseColorTexture":{"index":1,"texCoord":0},"metallicFactor":0.400000005960464,"roughnessFactor":0.301511347293854}}],"meshes":[{"name":"SM_Sstation","primitives":[{"attributes":{"NORMAL":3,"POSITION":2,"TANGENT":4,"TEXCOORD_0":5,"TEXCOORD_1":6},"indices":1,"material":0,"mode":4}]}],"nodes":[{"mesh":0,"name":"SM_Sstation","originalUnits":0.00999999977648258,"pivot":[0,0,0],"rotation":[-0.70710676908493,-0,0,0.70710676908493],"scale":[1,1,1],"translation":[0,0,0]}],"samplers":[{}],"scene":0,"scenes":[{"name":"Root Scene","nodes":[0]}],"textures":[{"name":"EnvSamplerTex","sampler":0,"source":0},{"name":"EnvSamplerTex","sampler":0,"source":1}]}