{"accessors":[{"bufferView":0,"byteOffset":0,"componentType":5126,"count":1,"max":[0],"min":[0],"type":"SCALAR"},{"bufferView":1,"byteOffset":0,"componentType":5123,"count":1440,"type":"SCALAR"},{"bufferView":2,"byteOffset":0,"componentType":5126,"count":960,"max":[11.3633852005005,0.365390121936798,4.55417490005493],"min":[-8.06588077545166,0.117293782532215,-6.89026832580566],"type":"VEC3"},{"bufferView":3,"byteOffset":0,"componentType":5126,"count":960,"type":"VEC3"},{"bufferView":4,"byteOffset":0,"componentType":5126,"count":960,"type":"VEC4"},{"bufferView":5,"byteOffset":0,"componentType":5126,"count":960,"type":"VEC2"},{"bufferView":6,"byteOffset":0,"componentType":5126,"count":960,"type":"VEC2"}],"animations":[{"channels":[],"name":"Unreal Take","samplers":[]}],"asset":{"generator":"FBX2glTF v0.13.0","version":"2.0"},"bufferViews":[{"buffer":0,"byteLength":4,"byteOffset":0},{"buffer":0,"byteLength":2880,"byteOffset":4,"target":34963},{"buffer":0,"byteLength":11520,"byteOffset":2884,"target":34962},{"buffer":0,"byteLength":11520,"byteOffset":14404,"target":34962},{"buffer":0,"byteLength":15360,"byteOffset":25924,"target":34962},{"buffer":0,"byteLength":7680,"byteOffset":41284,"target":34962},{"buffer":0,"byteLength":7680,"byteOffset":48964,"target":34962}],"buffers":[{"byteLength":56644,"uri":"SM_Sheet_Roof.bin"}],"images":[{"name":"GroundSheet_Normal","uri":"GroundSheet_Normal.png"},{"name":"GroundSheet_Albedo","uri":"GroundSheet_Albedo.png"}],"materials":[{"alphaMode":"OPAQUE","doubleSided":false,"extras":{"fromFBX":{"isTruePBR":false,"shadingModel":"Phong"}},"name":"M_GroundSheet","normalTexture":{"index":0,"texCoord":0},"pbrMetallicRoughness":{"baseColorFactor":[1,1,1,1],"baseColorTexture":{"index":1,"texCoord":0},"metallicFactor":0.400000005960464,"roughnessFactor":0.301511347293854}}],"meshes":[{"name":"SM_Sheet_Roof","primitives":[{"attributes":{"NORMAL":3,"POSITION":2,"TANGENT":4,"TEXCOORD_0":5,"TEXCOORD_1":6},"indices":1,"material":0,"mode":4}]}],"nodes":[{"mesh":0,"name":"SM_Sheet_Roof","originalUnits":0.00999999977648258,"pivot":[0,0,0],"rotation":[-0.70710676908493,-0,0,0.70710676908493],"scale":[1,1,1],"translation":[0,0,0]}],"samplers":[{}],"scene":0,"scenes":[{"name":"Root Scene","nodes":[0]}],"textures":[{"name":"EnvSamplerTex","sampler":0,"source":0},{"name":"EnvSamplerTex","sampler":0,"source":1}]}