{"accessors":[{"bufferView":0,"byteOffset":0,"componentType":5126,"count":1,"max":[0],"min":[0],"type":"SCALAR"},{"bufferView":1,"byteOffset":0,"componentType":5123,"count":1125,"type":"SCALAR"},{"bufferView":2,"byteOffset":0,"componentType":5126,"count":320,"max":[3.97164177894592,4.14234733581543,0.125833541154861],"min":[-0.1056714579463,0.0750198289752007,0.00910173915326595],"type":"VEC3"},{"bufferView":3,"byteOffset":0,"componentType":5126,"count":320,"type":"VEC3"},{"bufferView":4,"byteOffset":0,"componentType":5126,"count":320,"type":"VEC4"},{"bufferView":5,"byteOffset":0,"componentType":5126,"count":320,"type":"VEC2"},{"bufferView":6,"byteOffset":0,"componentType":5126,"count":320,"type":"VEC2"}],"animations":[{"channels":[],"name":"Unreal Take","samplers":[]}],"asset":{"generator":"FBX2glTF v0.13.0","version":"2.0"},"bufferViews":[{"buffer":0,"byteLength":4,"byteOffset":0},{"buffer":0,"byteLength":2250,"byteOffset":4,"target":34963},{"buffer":0,"byteLength":3840,"byteOffset":2256,"target":34962},{"buffer":0,"byteLength":3840,"byteOffset":6096,"target":34962},{"buffer":0,"byteLength":5120,"byteOffset":9936,"target":34962},{"buffer":0,"byteLength":2560,"byteOffset":15056,"target":34962},{"buffer":0,"byteLength":2560,"byteOffset":17616,"target":34962}],"buffers":[{"byteLength":20176,"uri":"SM_SquareCarpet.bin"}],"materials":[{"alphaMode":"OPAQUE","doubleSided":false,"extras":{"fromFBX":{"isTruePBR":false,"shadingModel":"Phong"}},"name":"M_RectangularBlueCarpet","pbrMetallicRoughness":{"baseColorFactor":[0,0.2379380017519,0.265625,1],"metallicFactor":0.400000005960464,"roughnessFactor":0.301511347293854}}],"meshes":[{"name":"SM_SquareCarpet","primitives":[{"attributes":{"NORMAL":3,"POSITION":2,"TANGENT":4,"TEXCOORD_0":5,"TEXCOORD_1":6},"indices":1,"material":0,"mode":4}]}],"nodes":[{"mesh":0,"name":"SM_SquareCarpet","originalUnits":0.00999999977648258,"pivot":[0,0,0],"rotation":[-0.70710676908493,-0,0,0.70710676908493],"scale":[1,1,1],"translation":[0,0,0]}],"samplers":[{}],"scene":0,"scenes":[{"name":"Root Scene","nodes":[0]}]}