{"accessors":[{"bufferView":0,"byteOffset":0,"componentType":5126,"count":1,"max":[0],"min":[0],"type":"SCALAR"},{"bufferView":1,"byteOffset":0,"componentType":5123,"count":1440,"type":"SCALAR"},{"bufferView":2,"byteOffset":0,"componentType":5126,"count":308,"max":[0.5,0.0123811298981309,0.111012265086174],"min":[-0.00000000051857,-0.10812693089247,-0.00949580129236],"type":"VEC3"},{"bufferView":3,"byteOffset":0,"componentType":5126,"count":308,"type":"VEC3"},{"bufferView":4,"byteOffset":0,"componentType":5126,"count":308,"type":"VEC4"},{"bufferView":5,"byteOffset":0,"componentType":5126,"count":308,"type":"VEC2"},{"bufferView":6,"byteOffset":0,"componentType":5126,"count":308,"type":"VEC2"}],"animations":[{"channels":[],"name":"Unreal Take","samplers":[]}],"asset":{"generator":"FBX2glTF v0.13.0","version":"2.0"},"bufferViews":[{"buffer":0,"byteLength":4,"byteOffset":0},{"buffer":0,"byteLength":2880,"byteOffset":4,"target":34963},{"buffer":0,"byteLength":3696,"byteOffset":2884,"target":34962},{"buffer":0,"byteLength":3696,"byteOffset":6580,"target":34962},{"buffer":0,"byteLength":4928,"byteOffset":10276,"target":34962},{"buffer":0,"byteLength":2464,"byteOffset":15204,"target":34962},{"buffer":0,"byteLength":2464,"byteOffset":17668,"target":34962}],"buffers":[{"byteLength":20132,"uri":"SM_TwistedCables.bin"}],"materials":[{"alphaMode":"OPAQUE","doubleSided":false,"extras":{"fromFBX":{"isTruePBR":false,"shadingModel":"Phong"}},"name":"M_TwistedCables","pbrMetallicRoughness":{"baseColorFactor":[0,0.0286979991942644,0.09375,1],"metallicFactor":0.400000005960464,"roughnessFactor":0.301511347293854}}],"meshes":[{"name":"SM_TwistedCables","primitives":[{"attributes":{"NORMAL":3,"POSITION":2,"TANGENT":4,"TEXCOORD_0":5,"TEXCOORD_1":6},"indices":1,"material":0,"mode":4}]}],"nodes":[{"mesh":0,"name":"SM_TwistedCables","originalUnits":0.00999999977648258,"pivot":[0,0,0],"rotation":[-0.70710676908493,-0,0,0.70710676908493],"scale":[1,1,1],"translation":[0,0,0]}],"samplers":[{}],"scene":0,"scenes":[{"name":"Root Scene","nodes":[0]}]}