{"accessors":[{"bufferView":0,"byteOffset":0,"componentType":5126,"count":1,"max":[0],"min":[0],"type":"SCALAR"},{"bufferView":1,"byteOffset":0,"componentType":5123,"count":180,"type":"SCALAR"},{"bufferView":2,"byteOffset":0,"componentType":5126,"count":80,"max":[0.299999982118607,0.200861275196075,4],"min":[0,-3.60000014305115,-0.00000014999999],"type":"VEC3"},{"bufferView":3,"byteOffset":0,"componentType":5126,"count":80,"type":"VEC3"},{"bufferView":4,"byteOffset":0,"componentType":5126,"count":80,"type":"VEC4"},{"bufferView":5,"byteOffset":0,"componentType":5126,"count":80,"type":"VEC2"},{"bufferView":6,"byteOffset":0,"componentType":5126,"count":80,"type":"VEC2"}],"animations":[{"channels":[],"name":"Unreal Take","samplers":[]}],"asset":{"generator":"FBX2glTF v0.13.0","version":"2.0"},"bufferViews":[{"buffer":0,"byteLength":4,"byteOffset":0},{"buffer":0,"byteLength":360,"byteOffset":4,"target":34963},{"buffer":0,"byteLength":960,"byteOffset":364,"target":34962},{"buffer":0,"byteLength":960,"byteOffset":1324,"target":34962},{"buffer":0,"byteLength":1280,"byteOffset":2284,"target":34962},{"buffer":0,"byteLength":640,"byteOffset":3564,"target":34962},{"buffer":0,"byteLength":640,"byteOffset":4204,"target":34962}],"buffers":[{"byteLength":4844,"uri":"SM_Wall_Corner.bin"}],"images":[{"name":"TX_Concrete_B","uri":"TX_Concrete_B.tga"}],"materials":[{"alphaMode":"OPAQUE","doubleSided":false,"extras":{"fromFBX":{"isTruePBR":false,"shadingModel":"Phong"}},"name":"M_Concrete","pbrMetallicRoughness":{"baseColorFactor":[1,1,1,1],"baseColorTexture":{"index":0,"texCoord":0},"metallicFactor":0.400000005960464,"roughnessFactor":0.301511347293854}}],"meshes":[{"name":"SM_Wall_Corner","primitives":[{"attributes":{"NORMAL":3,"POSITION":2,"TANGENT":4,"TEXCOORD_0":5,"TEXCOORD_1":6},"indices":1,"material":0,"mode":4}]}],"nodes":[{"mesh":0,"name":"SM_Wall_Corner","originalUnits":0.00999999977648258,"pivot":[0,0,0],"rotation":[-0.70710676908493,-0,0,0.70710676908493],"scale":[1,1,1],"translation":[0,0,0]}],"samplers":[{}],"scene":0,"scenes":[{"name":"Root Scene","nodes":[0]}],"textures":[{"name":"EnvSamplerTex","sampler":0,"source":0}]}