{"accessors":[{"bufferView":0,"byteOffset":0,"componentType":5126,"count":1,"max":[0],"min":[0],"type":"SCALAR"},{"bufferView":1,"byteOffset":0,"componentType":5123,"count":6858,"type":"SCALAR"},{"bufferView":2,"byteOffset":0,"componentType":5126,"count":2755,"max":[0.00537591380998492,-0.00659389421344,1.61193323135376],"min":[-0.91854017972946,-0.71032476425171,0.00981609057635069],"type":"VEC3"},{"bufferView":3,"byteOffset":0,"componentType":5126,"count":2755,"type":"VEC3"},{"bufferView":4,"byteOffset":0,"componentType":5126,"count":2755,"type":"VEC4"},{"bufferView":5,"byteOffset":0,"componentType":5126,"count":2755,"type":"VEC2"},{"bufferView":6,"byteOffset":0,"componentType":5126,"count":2755,"type":"VEC2"}],"animations":[{"channels":[],"name":"Unreal Take","samplers":[]}],"asset":{"generator":"FBX2glTF v0.13.0","version":"2.0"},"bufferViews":[{"buffer":0,"byteLength":4,"byteOffset":0},{"buffer":0,"byteLength":13716,"byteOffset":4,"target":34963},{"buffer":0,"byteLength":33060,"byteOffset":13720,"target":34962},{"buffer":0,"byteLength":33060,"byteOffset":46780,"target":34962},{"buffer":0,"byteLength":44080,"byteOffset":79840,"target":34962},{"buffer":0,"byteLength":22040,"byteOffset":123920,"target":34962},{"buffer":0,"byteLength":22040,"byteOffset":145960,"target":34962}],"buffers":[{"byteLength":168000,"uri":"SM_Workstation.bin"}],"images":[{"name":"TX_Workstation_N","uri":"TX_Workstation_N.tga"},{"name":"TX_Workstation_D","uri":"TX_Workstation_D.tga"}],"materials":[{"alphaMode":"OPAQUE","doubleSided":false,"extras":{"fromFBX":{"isTruePBR":false,"shadingModel":"Phong"}},"name":"M_Worstation","normalTexture":{"index":0,"texCoord":0},"pbrMetallicRoughness":{"baseColorFactor":[1,1,1,1],"baseColorTexture":{"index":1,"texCoord":0},"metallicFactor":0.400000005960464,"roughnessFactor":0.301511347293854}}],"meshes":[{"name":"SM_Workstation","primitives":[{"attributes":{"NORMAL":3,"POSITION":2,"TANGENT":4,"TEXCOORD_0":5,"TEXCOORD_1":6},"indices":1,"material":0,"mode":4}]}],"nodes":[{"mesh":0,"name":"SM_Workstation","originalUnits":0.00999999977648258,"pivot":[0,0,0],"rotation":[-0.70710676908493,-0,0,0.70710676908493],"scale":[1,1,1],"translation":[0,0,0]}],"samplers":[{}],"scene":0,"scenes":[{"name":"Root Scene","nodes":[0]}],"textures":[{"name":"EnvSamplerTex","sampler":0,"source":0},{"name":"EnvSamplerTex","sampler":0,"source":1}]}