{"accessors":[{"bufferView":0,"byteOffset":0,"componentType":5126,"count":1,"max":[0],"min":[0],"type":"SCALAR"},{"bufferView":1,"byteOffset":0,"componentType":5123,"count":6,"type":"SCALAR"},{"bufferView":2,"byteOffset":0,"componentType":5126,"count":4,"max":[0.789648354053497,0.799999892711639,0.00115461682435125],"min":[0.00104540819302201,0.000000000188110957366483,0.00115435617044568],"type":"VEC3"},{"bufferView":3,"byteOffset":0,"componentType":5126,"count":4,"type":"VEC3"},{"bufferView":4,"byteOffset":0,"componentType":5126,"count":4,"type":"VEC4"},{"bufferView":5,"byteOffset":0,"componentType":5126,"count":4,"type":"VEC2"},{"bufferView":6,"byteOffset":0,"componentType":5126,"count":4,"type":"VEC2"}],"animations":[{"channels":[],"name":"Unreal Take","samplers":[]}],"asset":{"generator":"FBX2glTF v0.13.0","version":"2.0"},"bufferViews":[{"buffer":0,"byteLength":4,"byteOffset":0},{"buffer":0,"byteLength":12,"byteOffset":4,"target":34963},{"buffer":0,"byteLength":48,"byteOffset":16,"target":34962},{"buffer":0,"byteLength":48,"byteOffset":64,"target":34962},{"buffer":0,"byteLength":64,"byteOffset":112,"target":34962},{"buffer":0,"byteLength":32,"byteOffset":176,"target":34962},{"buffer":0,"byteLength":32,"byteOffset":208,"target":34962}],"buffers":[{"byteLength":240,"uri":"SM_YellowStripe.bin"}],"images":[{"name":"yellow thingys_WorldGridMaterial_Normal","uri":"yellow thingys_WorldGridMaterial_Normal.png"},{"name":"yellow thingys_WorldGridMaterial_BaseColor","uri":"yellow thingys_WorldGridMaterial_BaseColor.png"}],"materials":[{"alphaMode":"OPAQUE","doubleSided":false,"extras":{"fromFBX":{"isTruePBR":false,"shadingModel":"Phong"}},"name":"M__YellowStripe","normalTexture":{"index":0,"texCoord":0},"pbrMetallicRoughness":{"baseColorFactor":[1,1,1,1],"baseColorTexture":{"index":1,"texCoord":0},"metallicFactor":0.400000005960464,"roughnessFactor":0.301511347293854}}],"meshes":[{"name":"SM_YellowStripe","primitives":[{"attributes":{"NORMAL":3,"POSITION":2,"TANGENT":4,"TEXCOORD_0":5,"TEXCOORD_1":6},"indices":1,"material":0,"mode":4}]}],"nodes":[{"mesh":0,"name":"SM_YellowStripe","originalUnits":0.00999999977648258,"pivot":[0,0,0],"rotation":[-0.70710676908493,-0,0,0.70710676908493],"scale":[1,1,1],"translation":[0,0,0]}],"samplers":[{}],"scene":0,"scenes":[{"name":"Root Scene","nodes":[0]}],"textures":[{"name":"EnvSamplerTex","sampler":0,"source":0},{"name":"EnvSamplerTex","sampler":0,"source":1}]}